<svg width="39" height="38" viewBox="0 0 39 38" fill="none" xmlns="http://www.w3.org/2000/svg">
<path d="M20.936 22.935C27.0537 22.935 32.013 17.9757 32.013 11.858C32.013 5.74035 27.0537 0.781006 20.936 0.781006C14.8184 0.781006 9.85901 5.74035 9.85901 11.858C9.85901 17.9757 14.8184 22.935 20.936 22.935Z" fill="#231F20"/>
<path d="M20.978 5.04102C19.092 5.04102 17.548 6.96202 17.548 9.32802C17.548 11.694 19.092 13.615 20.978 13.615C22.864 13.615 24.407 11.694 24.407 9.32802C24.407 6.96202 22.864 5.04102 20.978 5.04102ZM17.394 13.615C16.5124 13.6556 15.6803 14.0342 15.0704 14.6722C14.4606 15.3101 14.1199 16.1585 14.119 17.041V18.756H27.837V17.041C27.8399 16.1571 27.5005 15.3063 26.89 14.6671C26.2794 14.0278 25.4452 13.6497 24.562 13.612C24.121 14.1364 23.5732 14.5606 22.9551 14.8563C22.3371 15.1521 21.663 15.3125 20.978 15.327C20.2932 15.3129 19.6193 15.1529 19.0013 14.8577C18.3833 14.5625 17.8353 14.1388 17.394 13.615Z" fill="white"/>
<path d="M6.67901 35.91H7.38101L4.50101 29.61H3.84401L0.964014 35.91H1.65701L2.41301 34.227H5.92301L6.67901 35.91ZM2.65601 33.687L4.16801 30.303L5.68001 33.687H2.65601ZM10.2062 35.955C11.0072 35.955 11.6822 35.631 12.0602 35.019L11.5832 34.695C11.2592 35.172 10.7552 35.388 10.2062 35.388C9.17124 35.388 8.41524 34.659 8.41524 33.543C8.41524 32.436 9.17124 31.698 10.2062 31.698C10.7552 31.698 11.2592 31.923 11.5832 32.4L12.0602 32.076C11.6822 31.455 11.0072 31.14 10.2062 31.14C8.79324 31.14 7.76724 32.13 7.76724 33.543C7.76724 34.956 8.79324 35.955 10.2062 35.955ZM15.1984 35.955C15.9994 35.955 16.6744 35.631 17.0524 35.019L16.5754 34.695C16.2514 35.172 15.7474 35.388 15.1984 35.388C14.1634 35.388 13.4074 34.659 13.4074 33.543C13.4074 32.436 14.1634 31.698 15.1984 31.698C15.7474 31.698 16.2514 31.923 16.5754 32.4L17.0524 32.076C16.6744 31.455 15.9994 31.14 15.1984 31.14C13.7854 31.14 12.7594 32.13 12.7594 33.543C12.7594 34.956 13.7854 35.955 15.1984 35.955ZM20.1636 35.955C21.5496 35.955 22.5666 34.947 22.5666 33.543C22.5666 32.139 21.5496 31.14 20.1636 31.14C18.7776 31.14 17.7516 32.139 17.7516 33.543C17.7516 34.947 18.7776 35.955 20.1636 35.955ZM20.1636 35.388C19.1556 35.388 18.3996 34.65 18.3996 33.543C18.3996 32.436 19.1556 31.698 20.1636 31.698C21.1716 31.698 21.9186 32.436 21.9186 33.543C21.9186 34.65 21.1716 35.388 20.1636 35.388ZM27.4982 31.176V33.66C27.4982 34.74 26.8772 35.379 25.8872 35.379C24.9872 35.379 24.4652 34.866 24.4652 33.858V31.176H23.8262V33.921C23.8262 35.28 24.6182 35.955 25.8242 35.955C26.5802 35.955 27.1922 35.622 27.5252 35.046V35.91H28.1372V31.176H27.4982ZM32.3389 31.14C31.5199 31.14 30.8809 31.473 30.5389 32.049V31.176H29.9269V35.91H30.5659V33.426C30.5659 32.346 31.2049 31.716 32.2219 31.716C33.1219 31.716 33.6439 32.229 33.6439 33.228V35.91H34.2829V33.165C34.2829 31.806 33.4909 31.14 32.3389 31.14ZM38.2857 35.163C38.1057 35.325 37.8447 35.406 37.5837 35.406C37.0527 35.406 36.7647 35.1 36.7647 34.542V31.716H38.2047V31.176H36.7647V30.141H36.1257V31.176H35.2797V31.716H36.1257V34.578C36.1257 35.451 36.6207 35.955 37.5117 35.955C37.8807 35.955 38.2587 35.847 38.5107 35.622L38.2857 35.163Z" fill="#231F20"/>
</svg>
