<svg width="512" height="512" viewBox="0 0 512 512" fill="none" xmlns="http://www.w3.org/2000/svg">
<path d="M256 9.14286C190.062 9.14286 128.071 34.8204 81.4456 81.4456C34.8204 128.071 9.14286 190.062 9.14286 256C9.14286 321.938 34.8204 383.929 81.4456 430.554C128.071 477.179 190.062 502.857 256 502.857C321.938 502.857 383.929 477.179 430.554 430.554C477.179 383.929 502.857 321.938 502.857 256C502.857 190.062 477.179 128.071 430.554 81.4456C383.929 34.8204 321.938 9.14286 256 9.14286ZM256 0C397.385 0 512 114.615 512 256C512 397.385 397.385 512 256 512C114.615 512 0 397.385 0 256C0 114.615 114.615 0 256 0Z" fill="#231F20"/>
<path d="M324.145 248.618C324.235 238.693 326.849 228.954 331.74 220.317C336.631 211.68 343.638 204.429 352.104 199.247C346.722 191.613 339.645 185.329 331.429 180.888C323.212 176.446 314.078 173.968 304.744 173.647C284.501 171.599 265.393 185.459 255.244 185.459C245.096 185.459 229.15 173.939 212.419 174.25C201.44 174.555 190.728 177.709 181.336 183.403C171.943 189.096 164.191 197.133 158.842 206.726C136.003 246.351 152.99 305.085 175.299 337.213C186.179 352.938 199.07 370.621 216.186 369.981C232.643 369.322 238.787 359.375 258.609 359.375C278.43 359.375 284.008 369.981 301.361 369.67C319.006 369.341 330.197 353.633 340.986 337.853C348.705 326.503 354.746 314.099 358.924 301.025C348.65 296.64 339.885 289.342 333.711 280.032C327.536 270.722 324.224 259.808 324.181 248.637L324.145 248.618ZM291.541 152.362C301.316 140.894 306.161 126.026 305.018 111C290.267 112.426 276.621 119.439 266.874 130.602C262.012 136.02 258.289 142.361 255.926 149.246C253.564 156.132 252.611 163.423 253.123 170.685C260.504 170.788 267.809 169.188 274.472 166.011C281.135 162.833 286.976 158.163 291.541 152.362V152.362Z" fill="#231F20"/>
</svg>
