<svg width="43" height="38" viewBox="0 0 43 38" fill="none" xmlns="http://www.w3.org/2000/svg">
<path d="M1.94101 35.334V32.994H5.19901V32.427H1.94101V30.186H5.59501V29.61H1.27501V35.91H5.73001V35.334H1.94101ZM10.7712 29.232V32.076C10.3752 31.464 9.7272 31.14 8.9712 31.14C7.6212 31.14 6.6132 32.112 6.6132 33.543C6.6132 34.974 7.6212 35.955 8.9712 35.955C9.7542 35.955 10.4112 35.613 10.7982 34.974V35.91H11.4102V29.232H10.7712ZM9.0252 35.388C8.0172 35.388 7.2612 34.65 7.2612 33.543C7.2612 32.436 8.0172 31.698 9.0252 31.698C10.0242 31.698 10.7802 32.436 10.7802 33.543C10.7802 34.65 10.0242 35.388 9.0252 35.388ZM16.8168 31.176V33.66C16.8168 34.74 16.1958 35.379 15.2058 35.379C14.3058 35.379 13.7838 34.866 13.7838 33.858V31.176H13.1448V33.921C13.1448 35.28 13.9368 35.955 15.1428 35.955C15.8988 35.955 16.5108 35.622 16.8438 35.046V35.91H17.4558V31.176H16.8168ZM21.2075 35.955C22.0085 35.955 22.6835 35.631 23.0615 35.019L22.5845 34.695C22.2605 35.172 21.7565 35.388 21.2075 35.388C20.1725 35.388 19.4165 34.659 19.4165 33.543C19.4165 32.436 20.1725 31.698 21.2075 31.698C21.7565 31.698 22.2605 31.923 22.5845 32.4L23.0615 32.076C22.6835 31.455 22.0085 31.14 21.2075 31.14C19.7945 31.14 18.7685 32.13 18.7685 33.543C18.7685 34.956 19.7945 35.955 21.2075 35.955ZM25.9728 31.14C25.2258 31.14 24.5238 31.374 24.0468 31.779L24.3348 32.256C24.7218 31.914 25.2978 31.698 25.9098 31.698C26.7918 31.698 27.2508 32.139 27.2508 32.949V33.237H25.7478C24.3888 33.237 23.9208 33.849 23.9208 34.578C23.9208 35.397 24.5778 35.955 25.6488 35.955C26.4318 35.955 26.9898 35.658 27.2778 35.172V35.91H27.8898V32.976C27.8898 31.752 27.1968 31.14 25.9728 31.14ZM25.7478 35.451C24.9918 35.451 24.5508 35.109 24.5508 34.56C24.5508 34.074 24.8478 33.714 25.7658 33.714H27.2508V34.488C26.9988 35.109 26.4678 35.451 25.7478 35.451ZM31.8934 35.163C31.7134 35.325 31.4524 35.406 31.1914 35.406C30.6604 35.406 30.3724 35.1 30.3724 34.542V31.716H31.8124V31.176H30.3724V30.141H29.7334V31.176H28.8874V31.716H29.7334V34.578C29.7334 35.451 30.2284 35.955 31.1194 35.955C31.4884 35.955 31.8664 35.847 32.1184 35.622L31.8934 35.163ZM35.0496 35.955C36.4356 35.955 37.4526 34.947 37.4526 33.543C37.4526 32.139 36.4356 31.14 35.0496 31.14C33.6636 31.14 32.6376 32.139 32.6376 33.543C32.6376 34.947 33.6636 35.955 35.0496 35.955ZM35.0496 35.388C34.0416 35.388 33.2856 34.65 33.2856 33.543C33.2856 32.436 34.0416 31.698 35.0496 31.698C36.0576 31.698 36.8046 32.436 36.8046 33.543C36.8046 34.65 36.0576 35.388 35.0496 35.388ZM39.3692 32.103V31.176H38.7572V35.91H39.3962V33.498C39.3962 32.382 39.9992 31.752 40.9892 31.752C41.0342 31.752 41.0882 31.761 41.1422 31.761V31.14C40.2692 31.14 39.6662 31.473 39.3692 32.103Z" fill="#231F20"/>
<path d="M25.013 4.93501C25.013 4.11342 24.7694 3.31029 24.3129 2.62717C23.8565 1.94405 23.2077 1.41162 22.4487 1.09721C21.6896 0.782806 20.8544 0.700543 20.0486 0.860826C19.2428 1.02111 18.5026 1.41674 17.9217 1.99769C17.3407 2.57863 16.9451 3.31881 16.7848 4.1246C16.6245 4.9304 16.7068 5.76563 17.0212 6.52467C17.3356 7.28372 17.8681 7.93249 18.5512 8.38893C19.2343 8.84538 20.0374 9.08901 20.859 9.08901C21.9607 9.08901 23.0173 8.65136 23.7963 7.87233C24.5754 7.0933 25.013 6.03672 25.013 4.93501ZM19.889 11.213C17.322 9.64101 13.164 9.21301 11.071 9.09101C10.9084 9.07888 10.7451 9.10001 10.591 9.1531C10.4368 9.2062 10.2951 9.29014 10.1745 9.39982C10.0539 9.50949 9.95685 9.64259 9.88937 9.791C9.82189 9.93941 9.78537 10.1 9.78201 10.263V19.904C9.78693 20.2087 9.90852 20.4998 10.1217 20.7175C10.3349 20.9352 10.6235 21.0628 10.928 21.074C12.817 21.174 16.639 21.536 19.281 22.867C19.3714 22.9161 19.4729 22.941 19.5757 22.9396C19.6786 22.9381 19.7793 22.9102 19.8682 22.8586C19.9572 22.807 20.0314 22.7334 20.0837 22.6449C20.136 22.5563 20.1647 22.4558 20.167 22.353V11.709C20.1682 11.6087 20.1432 11.5098 20.0945 11.4221C20.0457 11.3344 19.9749 11.2609 19.889 11.209V11.213ZM30.647 9.09101C28.555 9.21001 24.396 9.64201 21.829 11.213C21.7441 11.2658 21.674 11.3395 21.6255 11.427C21.5771 11.5145 21.5518 11.613 21.552 11.713V22.352C21.5539 22.4553 21.5824 22.5564 21.6348 22.6455C21.6872 22.7346 21.7617 22.8086 21.8512 22.8604C21.9406 22.9122 22.0419 22.9401 22.1452 22.9412C22.2486 22.9424 22.3505 22.9168 22.441 22.867C25.082 21.538 28.902 21.175 30.791 21.076C31.0956 21.0645 31.3842 20.9367 31.5974 20.7189C31.8106 20.501 31.9321 20.2098 31.937 19.905V10.263C31.9337 10.0999 31.8971 9.93923 31.8296 9.79075C31.762 9.64227 31.6649 9.50912 31.5442 9.39943C31.4235 9.28974 31.2816 9.20582 31.1274 9.15279C30.9731 9.09976 30.8097 9.07874 30.647 9.09101Z" fill="#231F20"/>
</svg>
