<svg width="512" height="512" viewBox="0 0 512 512" fill="none" xmlns="http://www.w3.org/2000/svg">
<path d="M323.128 266.126L330.069 220.956H286.682V191.715C286.379 188.342 286.839 184.943 288.028 181.771C289.217 178.599 291.104 175.736 293.55 173.392C295.996 171.048 298.937 169.285 302.156 168.232C305.376 167.179 308.791 166.864 312.149 167.31H331.851V128.853C320.279 126.983 308.586 125.963 296.865 125.8C288.798 125.182 280.695 126.346 273.129 129.209C265.562 132.072 258.718 136.564 253.082 142.368C247.445 148.171 243.154 155.142 240.512 162.789C237.87 170.435 236.943 178.569 237.795 186.614V221.032H198.144V266.126H237.795V375.334H286.682V266.126H323.128Z" fill="#231F20"/>
<path d="M256 9.48148C190.153 9.48148 128.246 35.1239 81.685 81.685C35.1239 128.246 9.48148 190.153 9.48148 256C9.48148 321.847 35.1239 383.754 81.685 430.315C128.246 476.876 190.153 502.518 256 502.518C321.847 502.518 383.754 476.876 430.315 430.315C476.876 383.754 502.518 321.847 502.518 256C502.518 190.153 476.876 128.246 430.315 81.685C383.754 35.1239 321.847 9.48148 256 9.48148ZM256 0C397.385 0 512 114.615 512 256C512 397.385 397.385 512 256 512C114.615 512 0 397.385 0 256C0 114.615 114.615 0 256 0Z" fill="#231F20"/>
</svg>
