<svg width="512" height="512" viewBox="0 0 512 512" fill="none" xmlns="http://www.w3.org/2000/svg">
<path d="M377.673 236.215L376.375 230.729H257.262V281.198H328.411C324.446 296.626 315.429 310.282 302.799 319.989C290.169 329.696 274.653 334.895 258.724 334.757C237.894 334.58 217.886 326.608 202.642 312.412C195.142 305.026 189.173 296.234 185.075 286.538C180.977 276.843 178.832 266.434 178.761 255.909C179.076 234.782 187.479 214.579 202.24 199.461C217.283 185.261 237.253 177.459 257.938 177.701C275.446 177.946 292.277 184.504 305.335 196.169L341.156 160.53C317.993 139.688 287.964 128.107 256.804 128V128C222.261 127.791 189.046 141.292 164.443 165.541C141.02 189.809 127.952 222.235 128 255.964C127.813 289.008 140.353 320.857 163.017 344.905C175.647 357.528 190.678 367.491 207.223 374.206C223.769 380.921 241.492 384.251 259.346 384C275.486 384.132 291.483 380.975 306.362 374.722C321.242 368.469 334.692 359.251 345.892 347.63C367.885 323.459 379.782 291.781 379.136 259.109C379.244 251.451 378.755 243.797 377.673 236.215Z" fill="#231F20"/>
<path d="M506.929 256C506.929 394.584 394.584 506.929 256 506.929C117.416 506.929 5.07141 394.584 5.07141 256C5.07141 117.416 117.416 5.07141 256 5.07141C394.584 5.07141 506.929 117.416 506.929 256Z" stroke="#231F20"/>
</svg>
