<svg width="29" height="38" viewBox="0 0 29 38" fill="none" xmlns="http://www.w3.org/2000/svg">
<path d="M5.65298 29.61V32.418H1.71098V29.61H1.04498V35.91H1.71098V33.003H5.65298V35.91H6.30998V29.61H5.65298ZM10.1663 35.955C11.5523 35.955 12.5693 34.947 12.5693 33.543C12.5693 32.139 11.5523 31.14 10.1663 31.14C8.78027 31.14 7.75427 32.139 7.75427 33.543C7.75427 34.947 8.78027 35.955 10.1663 35.955ZM10.1663 35.388C9.15827 35.388 8.40227 34.65 8.40227 33.543C8.40227 32.436 9.15827 31.698 10.1663 31.698C11.1743 31.698 11.9213 32.436 11.9213 33.543C11.9213 34.65 11.1743 35.388 10.1663 35.388ZM19.7778 31.14C18.9228 31.14 18.2478 31.527 17.9058 32.139C17.6178 31.473 17.0058 31.14 16.2228 31.14C15.4308 31.14 14.8188 31.473 14.4858 32.04V31.176H13.8738V35.91H14.5128V33.426C14.5128 32.346 15.1338 31.716 16.0968 31.716C16.9608 31.716 17.4648 32.229 17.4648 33.228V35.91H18.1038V33.426C18.1038 32.346 18.7158 31.716 19.6878 31.716C20.5428 31.716 21.0468 32.229 21.0468 33.228V35.91H21.6858V33.165C21.6858 31.806 20.9298 31.14 19.7778 31.14ZM27.5673 33.543C27.5673 32.121 26.6043 31.14 25.2723 31.14C23.9403 31.14 22.9593 32.139 22.9593 33.543C22.9593 34.947 23.9673 35.955 25.4433 35.955C26.1903 35.955 26.8473 35.685 27.2703 35.181L26.9103 34.767C26.5503 35.181 26.0373 35.388 25.4613 35.388C24.4263 35.388 23.6703 34.731 23.5983 33.741H27.5583C27.5583 33.669 27.5673 33.597 27.5673 33.543ZM25.2723 31.689C26.1993 31.689 26.8743 32.337 26.9553 33.264H23.5983C23.6793 32.337 24.3543 31.689 25.2723 31.689Z" fill="#231F20"/>
<path d="M11.277 22.935V15.55H16.815V22.935H22.446V11.858H26.046L14.046 0.781006L2.04602 11.858H5.64602V22.935H11.277Z" fill="#231F20"/>
</svg>
