<svg width="512" height="512" viewBox="0 0 512 512" fill="none" xmlns="http://www.w3.org/2000/svg">
<path d="M256 9.48148C190.153 9.48148 128.246 35.1239 81.685 81.685C35.1239 128.246 9.48148 190.153 9.48148 256C9.48148 321.847 35.1239 383.754 81.685 430.315C128.246 476.876 190.153 502.518 256 502.518C321.847 502.518 383.754 476.876 430.315 430.315C476.876 383.754 502.518 321.847 502.518 256C502.518 190.153 476.876 128.246 430.315 81.685C383.754 35.1239 321.847 9.48148 256 9.48148ZM256 0C397.385 0 512 114.615 512 256C512 397.385 397.385 512 256 512C114.615 512 0 397.385 0 256C0 114.615 114.615 0 256 0Z" fill="#231F20"/>
<path d="M269.786 194.863C251.812 194.234 234.324 200.768 221.167 213.029C208.01 225.29 200.261 242.274 199.623 260.248C200.261 278.221 208.01 295.206 221.167 307.467C234.324 319.728 251.812 326.262 269.786 325.632C287.76 326.262 305.248 319.728 318.405 307.467C331.562 295.206 339.311 278.221 339.949 260.248C339.311 242.274 331.562 225.29 318.405 213.029C305.248 200.768 287.76 194.234 269.786 194.863V194.863ZM269.786 302.744C258.106 303.123 246.75 298.868 238.196 290.907C229.641 282.946 224.583 271.925 224.123 260.248C224.568 248.564 229.622 237.532 238.179 229.565C246.736 221.597 258.1 217.343 269.786 217.733C281.472 217.343 292.836 221.597 301.393 229.565C309.95 237.532 315.004 248.564 315.449 260.248C314.975 271.915 309.91 282.921 301.357 290.87C292.804 298.819 281.456 303.067 269.786 302.687V302.744ZM359.291 192.19C359.008 196.342 357.159 200.233 354.118 203.074C351.076 205.916 347.069 207.496 342.907 207.496C338.745 207.496 334.738 205.916 331.696 203.074C328.655 200.233 326.806 196.342 326.523 192.19C326.806 188.037 328.655 184.147 331.696 181.305C334.738 178.464 338.745 176.883 342.907 176.883C347.069 176.883 351.076 178.464 354.118 181.305C357.159 184.147 359.008 188.037 359.291 192.19V192.19ZM405.807 207.663C405.974 197.716 404.096 187.84 400.29 178.647C396.483 169.455 390.829 161.143 383.678 154.226C367.741 140.5 347.285 133.164 326.258 133.632C303.635 132.437 235.842 132.437 213.22 133.632C192.211 133.147 171.767 140.463 155.838 154.169C148.698 161.095 143.052 169.409 139.246 178.599C135.44 187.789 133.555 197.661 133.708 207.607C132.418 228.655 132.418 291.764 133.708 312.813C133.541 322.761 135.419 332.637 139.225 341.829C143.032 351.021 148.686 359.334 155.838 366.251C171.775 379.962 192.219 387.297 213.238 386.844C235.861 388.039 303.654 388.039 326.277 386.844C347.306 387.362 367.773 380.019 383.678 366.251C390.823 359.325 396.48 351.013 400.302 341.824C404.123 332.636 406.029 322.764 405.902 312.813C407.192 291.764 407.192 228.712 405.902 207.663H405.807ZM376.585 335.417C374.124 341.008 370.544 346.035 366.067 350.19C361.589 354.345 356.308 357.539 350.549 359.576C323.948 364.652 296.815 366.372 269.786 364.696C242.757 366.346 215.627 364.626 189.023 359.576C183.264 357.539 177.983 354.345 173.505 350.19C169.028 346.035 165.448 341.008 162.987 335.417C157.541 310.756 155.689 285.438 157.487 260.248C155.721 235.07 157.573 209.769 162.987 185.117C165.433 179.501 169.006 174.448 173.485 170.27C177.963 166.091 183.252 162.877 189.023 160.825C215.624 155.749 242.757 154.028 269.786 155.705C296.815 154.055 323.945 155.775 350.549 160.825C356.32 162.877 361.609 166.091 366.087 170.27C370.566 174.448 374.139 179.501 376.585 185.117C382.031 209.777 383.883 235.095 382.085 260.286C383.882 285.464 382.03 310.769 376.585 335.417V335.417Z" fill="#231F20"/>
</svg>
