<svg width="37" height="38" viewBox="0 0 37 38" fill="none" xmlns="http://www.w3.org/2000/svg">
<path d="M1.75897 35.91H5.95297V35.334H2.42497V29.61H1.75897V35.91ZM10.9845 33.543C10.9845 32.121 10.0215 31.14 8.68946 31.14C7.35746 31.14 6.37646 32.139 6.37646 33.543C6.37646 34.947 7.38446 35.955 8.86046 35.955C9.60746 35.955 10.2645 35.685 10.6875 35.181L10.3275 34.767C9.96746 35.181 9.45446 35.388 8.87846 35.388C7.84346 35.388 7.08746 34.731 7.01546 33.741H10.9755C10.9755 33.669 10.9845 33.597 10.9845 33.543ZM8.68946 31.689C9.61646 31.689 10.2915 32.337 10.3725 33.264H7.01546C7.09646 32.337 7.77146 31.689 8.68946 31.689ZM13.8093 31.14C13.0623 31.14 12.3603 31.374 11.8833 31.779L12.1713 32.256C12.5583 31.914 13.1343 31.698 13.7463 31.698C14.6283 31.698 15.0873 32.139 15.0873 32.949V33.237H13.5843C12.2253 33.237 11.7573 33.849 11.7573 34.578C11.7573 35.397 12.4143 35.955 13.4853 35.955C14.2683 35.955 14.8263 35.658 15.1143 35.172V35.91H15.7263V32.976C15.7263 31.752 15.0333 31.14 13.8093 31.14ZM13.5843 35.451C12.8283 35.451 12.3873 35.109 12.3873 34.56C12.3873 34.074 12.6843 33.714 13.6023 33.714H15.0873V34.488C14.8353 35.109 14.3043 35.451 13.5843 35.451ZM18.0739 32.103V31.176H17.4619V35.91H18.1009V33.498C18.1009 32.382 18.7039 31.752 19.6939 31.752C19.7389 31.752 19.7929 31.761 19.8469 31.761V31.14C18.9739 31.14 18.3709 31.473 18.0739 32.103ZM23.4159 31.14C22.5969 31.14 21.9579 31.473 21.6159 32.049V31.176H21.0039V35.91H21.6429V33.426C21.6429 32.346 22.2819 31.716 23.2989 31.716C24.1989 31.716 24.7209 32.229 24.7209 33.228V35.91H25.3599V33.165C25.3599 31.806 24.5679 31.14 23.4159 31.14ZM31.2433 33.543C31.2433 32.121 30.2803 31.14 28.9483 31.14C27.6163 31.14 26.6353 32.139 26.6353 33.543C26.6353 34.947 27.6433 35.955 29.1193 35.955C29.8663 35.955 30.5233 35.685 30.9463 35.181L30.5863 34.767C30.2263 35.181 29.7133 35.388 29.1373 35.388C28.1023 35.388 27.3463 34.731 27.2743 33.741H31.2343C31.2343 33.669 31.2433 33.597 31.2433 33.543ZM28.9483 31.689C29.8753 31.689 30.5503 32.337 30.6313 33.264H27.2743C27.3553 32.337 28.0303 31.689 28.9483 31.689ZM33.1559 32.103V31.176H32.5439V35.91H33.1829V33.498C33.1829 32.382 33.7859 31.752 34.7759 31.752C34.8209 31.752 34.8749 31.761 34.9289 31.761V31.14C34.0559 31.14 33.4529 31.473 33.1559 32.103Z" fill="#231F20"/>
<path d="M35.9 5.92701L19.811 0.981013C18.9312 0.711488 17.9908 0.711488 17.111 0.981013L1.01897 5.92701C0.727362 6.00219 0.469013 6.17217 0.284556 6.41022C0.1001 6.64826 0 6.94087 0 7.24201C0 7.54316 0.1001 7.83576 0.284556 8.07381C0.469013 8.31185 0.727362 8.48183 1.01897 8.55701L3.82497 9.41901C3.19517 10.1844 2.83277 11.1346 2.79297 12.125C2.52056 12.2698 2.29046 12.483 2.12524 12.7435C1.96003 13.004 1.86536 13.3031 1.85054 13.6112C1.83572 13.9194 1.90124 14.2261 2.04069 14.5013C2.18014 14.7765 2.38872 15.0107 2.64597 15.181L1.17297 21.811C1.14305 21.9458 1.14376 22.0857 1.17506 22.2202C1.20635 22.3547 1.26744 22.4805 1.3538 22.5882C1.44017 22.696 1.54962 22.783 1.67409 22.8429C1.79856 22.9027 1.93487 22.9339 2.07297 22.934H5.30997C5.44808 22.9339 5.58439 22.9027 5.70886 22.8429C5.83332 22.783 5.94278 22.696 6.02914 22.5882C6.11551 22.4805 6.17659 22.3547 6.20789 22.2202C6.23919 22.0857 6.2399 21.9458 6.20997 21.811L4.73897 15.181C4.99338 15.0139 5.20058 14.7843 5.34069 14.5141C5.48079 14.2438 5.5491 13.9422 5.53906 13.638C5.52902 13.3338 5.44097 13.0372 5.28335 12.7768C5.12574 12.5165 4.90385 12.301 4.63897 12.151C4.66013 11.7296 4.77903 11.3188 4.98625 10.9512C5.19347 10.5836 5.48335 10.2693 5.83297 10.033L17.116 13.5C17.9958 13.7692 18.9361 13.7692 19.816 13.5L35.9 8.55801C36.192 8.48318 36.4509 8.31328 36.6357 8.0751C36.8206 7.83692 36.9209 7.544 36.9209 7.24251C36.9209 6.94102 36.8206 6.6481 36.6357 6.40992C36.4509 6.17175 36.192 6.00185 35.9 5.92701ZM20.349 15.267C19.1159 15.6448 17.798 15.6448 16.565 15.267L8.19997 12.696L7.38197 19.242C7.38197 21.281 12.341 22.934 18.459 22.934C24.577 22.934 29.538 21.281 29.538 19.242L28.72 12.696L20.353 15.267H20.349Z" fill="#231F20"/>
</svg>
