<svg width="512" height="512" viewBox="0 0 512 512" fill="none" xmlns="http://www.w3.org/2000/svg">
<path d="M256 9.48148C190.153 9.48148 128.246 35.1239 81.685 81.685C35.1239 128.246 9.48148 190.153 9.48148 256C9.48148 321.847 35.1239 383.754 81.685 430.315C128.246 476.876 190.153 502.518 256 502.518C321.847 502.518 383.754 476.876 430.315 430.315C476.876 383.754 502.518 321.847 502.518 256C502.518 190.153 476.876 128.246 430.315 81.685C383.754 35.1239 321.847 9.48148 256 9.48148ZM256 0C397.385 0 512 114.615 512 256C512 397.385 397.385 512 256 512C114.615 512 0 397.385 0 256C0 114.615 114.615 0 256 0Z" fill="#231F20"/>
<path d="M192.873 374.14H137.179V194.807H192.873V374.14ZM164.978 170.345C158.569 170.379 152.293 168.511 146.945 164.978C141.597 161.445 137.417 156.406 134.933 150.497C132.449 144.588 131.773 138.076 132.99 131.783C134.208 125.49 137.264 119.699 141.772 115.143C146.28 110.587 152.039 107.47 158.318 106.187C164.598 104.903 171.117 105.51 177.052 107.932C182.986 110.354 188.07 114.481 191.659 119.791C195.248 125.102 197.182 131.357 197.215 137.767C197.231 146.353 193.85 154.596 187.811 160.699C181.772 166.803 173.564 170.27 164.978 170.345V170.345ZM401.276 374.14H345.714V286.91C345.714 266.051 345.297 239.503 316.758 239.503C287.801 239.503 283.364 262.107 283.364 285.488V374.292H227.746V194.807H281.164V219.307H281.942C287.284 210.165 295.007 202.643 304.287 197.543C313.568 192.444 324.058 189.958 334.64 190.351C390.998 190.351 401.352 227.461 401.352 275.684V374.197L401.276 374.14Z" fill="#231F20"/>
</svg>
