<svg width="42" height="40" viewBox="0 0 42 40" fill="none" xmlns="http://www.w3.org/2000/svg">
<path d="M1.692 37.424V35.084H4.95V34.517H1.692V32.276H5.346V31.7H1.026V38H5.481V37.424H1.692ZM10.5222 31.322V34.166C10.1262 33.554 9.4782 33.23 8.7222 33.23C7.3722 33.23 6.3642 34.202 6.3642 35.633C6.3642 37.064 7.3722 38.045 8.7222 38.045C9.5052 38.045 10.1622 37.703 10.5492 37.064V38H11.1612V31.322H10.5222ZM8.7762 37.478C7.7682 37.478 7.0122 36.74 7.0122 35.633C7.0122 34.526 7.7682 33.788 8.7762 33.788C9.7752 33.788 10.5312 34.526 10.5312 35.633C10.5312 36.74 9.7752 37.478 8.7762 37.478ZM16.5678 33.266V35.75C16.5678 36.83 15.9468 37.469 14.9568 37.469C14.0568 37.469 13.5348 36.956 13.5348 35.948V33.266H12.8958V36.011C12.8958 37.37 13.6878 38.045 14.8938 38.045C15.6498 38.045 16.2618 37.712 16.5948 37.136V38H17.2068V33.266H16.5678ZM20.9585 38.045C21.7595 38.045 22.4345 37.721 22.8125 37.109L22.3355 36.785C22.0115 37.262 21.5075 37.478 20.9585 37.478C19.9235 37.478 19.1675 36.749 19.1675 35.633C19.1675 34.526 19.9235 33.788 20.9585 33.788C21.5075 33.788 22.0115 34.013 22.3355 34.49L22.8125 34.166C22.4345 33.545 21.7595 33.23 20.9585 33.23C19.5455 33.23 18.5195 34.22 18.5195 35.633C18.5195 37.046 19.5455 38.045 20.9585 38.045ZM25.7238 33.23C24.9768 33.23 24.2748 33.464 23.7978 33.869L24.0858 34.346C24.4728 34.004 25.0488 33.788 25.6608 33.788C26.5428 33.788 27.0018 34.229 27.0018 35.039V35.327H25.4988C24.1398 35.327 23.6718 35.939 23.6718 36.668C23.6718 37.487 24.3288 38.045 25.3998 38.045C26.1828 38.045 26.7408 37.748 27.0288 37.262V38H27.6408V35.066C27.6408 33.842 26.9478 33.23 25.7238 33.23ZM25.4988 37.541C24.7428 37.541 24.3018 37.199 24.3018 36.65C24.3018 36.164 24.5988 35.804 25.5168 35.804H27.0018V36.578C26.7498 37.199 26.2188 37.541 25.4988 37.541ZM31.6444 37.253C31.4644 37.415 31.2034 37.496 30.9424 37.496C30.4114 37.496 30.1234 37.19 30.1234 36.632V33.806H31.5634V33.266H30.1234V32.231H29.4844V33.266H28.6384V33.806H29.4844V36.668C29.4844 37.541 29.9794 38.045 30.8704 38.045C31.2394 38.045 31.6174 37.937 31.8694 37.712L31.6444 37.253ZM34.8006 38.045C36.1866 38.045 37.2036 37.037 37.2036 35.633C37.2036 34.229 36.1866 33.23 34.8006 33.23C33.4146 33.23 32.3886 34.229 32.3886 35.633C32.3886 37.037 33.4146 38.045 34.8006 38.045ZM34.8006 37.478C33.7926 37.478 33.0366 36.74 33.0366 35.633C33.0366 34.526 33.7926 33.788 34.8006 33.788C35.8086 33.788 36.5556 34.526 36.5556 35.633C36.5556 36.74 35.8086 37.478 34.8006 37.478ZM39.1202 34.193V33.266H38.5082V38H39.1472V35.588C39.1472 34.472 39.7502 33.842 40.7402 33.842C40.7852 33.842 40.8392 33.851 40.8932 33.851V33.23C40.0202 33.23 39.4172 33.563 39.1202 34.193Z" fill="#231F20"/>
<path d="M25.2493 4.68632C25.2493 3.75946 24.9414 2.8534 24.3645 2.08274C23.7876 1.31208 22.9677 0.711424 22.0084 0.356727C21.0491 0.00203053 19.9935 -0.0907743 18.9752 0.0900484C17.9568 0.270871 17.0213 0.7172 16.2871 1.37259C15.5529 2.02799 15.0529 2.86301 14.8503 3.77207C14.6478 4.68112 14.7517 5.62339 15.1491 6.4797C15.5464 7.33601 16.2193 8.06792 17.0827 8.58286C17.946 9.0978 18.961 9.37264 19.9994 9.37264C21.3917 9.37264 22.7271 8.87891 23.7116 8.00005C24.6962 7.1212 25.2493 5.92921 25.2493 4.68632ZM18.7735 11.7688C15.5292 9.99538 10.2742 9.51253 7.62907 9.3749C7.4236 9.36122 7.21716 9.38506 7.02236 9.44495C6.82755 9.50485 6.64846 9.59955 6.49601 9.72328C6.34357 9.84701 6.22096 9.99717 6.13568 10.1646C6.0504 10.332 6.00424 10.5132 6 10.6971V21.5735C6.00621 21.9172 6.15988 22.2457 6.42934 22.4913C6.6988 22.7369 7.06352 22.8808 7.44834 22.8935C9.8357 23.0063 14.666 23.4147 18.0051 24.9162C18.1193 24.9716 18.2476 24.9998 18.3775 24.9981C18.5075 24.9965 18.6348 24.965 18.7472 24.9068C18.8596 24.8486 18.9534 24.7655 19.0195 24.6656C19.0857 24.5658 19.1219 24.4524 19.1248 24.3364V12.3284C19.1264 12.2152 19.0948 12.1036 19.0331 12.0047C18.9715 11.9057 18.882 11.8229 18.7735 11.7643V11.7688ZM32.3697 9.3749C29.7257 9.50915 24.4695 9.99651 21.2253 11.7688C21.1179 11.8284 21.0294 11.9115 20.9681 12.0103C20.9069 12.109 20.8749 12.22 20.8752 12.3329V24.3352C20.8775 24.4518 20.9136 24.5659 20.9798 24.6664C21.046 24.7669 21.1402 24.8504 21.2533 24.9088C21.3663 24.9673 21.4943 24.9987 21.6249 25C21.7555 25.0013 21.8843 24.9724 21.9987 24.9162C25.3365 23.4169 30.1643 23.0074 32.5517 22.8957C32.9366 22.8828 33.3013 22.7386 33.5707 22.4928C33.8402 22.2471 33.9938 21.9185 34 21.5747V10.6971C33.9958 10.5131 33.9496 10.3318 33.8642 10.1643C33.7789 9.99681 33.6561 9.84659 33.5036 9.72285C33.351 9.5991 33.1717 9.50443 32.9768 9.4446C32.7818 9.38478 32.5752 9.36106 32.3697 9.3749V9.3749Z" fill="#231F20"/>
</svg>
