<svg width="42" height="40" viewBox="0 0 42 40" fill="none" xmlns="http://www.w3.org/2000/svg">
<path d="M1.692 36.824V34.484H4.95V33.917H1.692V31.676H5.346V31.1H1.026V37.4H5.481V36.824H1.692ZM10.5222 30.722V33.566C10.1262 32.954 9.4782 32.63 8.7222 32.63C7.3722 32.63 6.3642 33.602 6.3642 35.033C6.3642 36.464 7.3722 37.445 8.7222 37.445C9.5052 37.445 10.1622 37.103 10.5492 36.464V37.4H11.1612V30.722H10.5222ZM8.7762 36.878C7.7682 36.878 7.0122 36.14 7.0122 35.033C7.0122 33.926 7.7682 33.188 8.7762 33.188C9.7752 33.188 10.5312 33.926 10.5312 35.033C10.5312 36.14 9.7752 36.878 8.7762 36.878ZM16.5678 32.666V35.15C16.5678 36.23 15.9468 36.869 14.9568 36.869C14.0568 36.869 13.5348 36.356 13.5348 35.348V32.666H12.8958V35.411C12.8958 36.77 13.6878 37.445 14.8938 37.445C15.6498 37.445 16.2618 37.112 16.5948 36.536V37.4H17.2068V32.666H16.5678ZM20.9585 37.445C21.7595 37.445 22.4345 37.121 22.8125 36.509L22.3355 36.185C22.0115 36.662 21.5075 36.878 20.9585 36.878C19.9235 36.878 19.1675 36.149 19.1675 35.033C19.1675 33.926 19.9235 33.188 20.9585 33.188C21.5075 33.188 22.0115 33.413 22.3355 33.89L22.8125 33.566C22.4345 32.945 21.7595 32.63 20.9585 32.63C19.5455 32.63 18.5195 33.62 18.5195 35.033C18.5195 36.446 19.5455 37.445 20.9585 37.445ZM25.7238 32.63C24.9768 32.63 24.2748 32.864 23.7978 33.269L24.0858 33.746C24.4728 33.404 25.0488 33.188 25.6608 33.188C26.5428 33.188 27.0018 33.629 27.0018 34.439V34.727H25.4988C24.1398 34.727 23.6718 35.339 23.6718 36.068C23.6718 36.887 24.3288 37.445 25.3998 37.445C26.1828 37.445 26.7408 37.148 27.0288 36.662V37.4H27.6408V34.466C27.6408 33.242 26.9478 32.63 25.7238 32.63ZM25.4988 36.941C24.7428 36.941 24.3018 36.599 24.3018 36.05C24.3018 35.564 24.5988 35.204 25.5168 35.204H27.0018V35.978C26.7498 36.599 26.2188 36.941 25.4988 36.941ZM31.6444 36.653C31.4644 36.815 31.2034 36.896 30.9424 36.896C30.4114 36.896 30.1234 36.59 30.1234 36.032V33.206H31.5634V32.666H30.1234V31.631H29.4844V32.666H28.6384V33.206H29.4844V36.068C29.4844 36.941 29.9794 37.445 30.8704 37.445C31.2394 37.445 31.6174 37.337 31.8694 37.112L31.6444 36.653ZM34.8006 37.445C36.1866 37.445 37.2036 36.437 37.2036 35.033C37.2036 33.629 36.1866 32.63 34.8006 32.63C33.4146 32.63 32.3886 33.629 32.3886 35.033C32.3886 36.437 33.4146 37.445 34.8006 37.445ZM34.8006 36.878C33.7926 36.878 33.0366 36.14 33.0366 35.033C33.0366 33.926 33.7926 33.188 34.8006 33.188C35.8086 33.188 36.5556 33.926 36.5556 35.033C36.5556 36.14 35.8086 36.878 34.8006 36.878ZM39.1202 33.593V32.666H38.5082V37.4H39.1472V34.988C39.1472 33.872 39.7502 33.242 40.7402 33.242C40.7852 33.242 40.8392 33.251 40.8932 33.251V32.63C40.0202 32.63 39.4172 32.963 39.1202 33.593Z" fill="#CAE063"/>
<path d="M25.2493 4.95732C25.2493 4.03045 24.9414 3.1244 24.3645 2.35374C23.7876 1.58308 22.9677 0.98242 22.0084 0.627723C21.0491 0.273027 19.9935 0.180222 18.9752 0.361045C17.9568 0.541867 17.0213 0.988196 16.2871 1.64359C15.5529 2.29898 15.0529 3.13401 14.8503 4.04306C14.6478 4.95212 14.7517 5.89438 15.1491 6.7507C15.5464 7.60701 16.2193 8.33891 17.0827 8.85385C17.946 9.36879 18.961 9.64364 19.9994 9.64364C21.3917 9.64364 22.7271 9.1499 23.7116 8.27105C24.6962 7.39219 25.2493 6.20021 25.2493 4.95732ZM18.7735 12.0398C15.5292 10.2664 10.2742 9.78353 7.62907 9.6459C7.4236 9.63222 7.21716 9.65605 7.02236 9.71595C6.82755 9.77585 6.64846 9.87055 6.49601 9.99428C6.34357 10.118 6.22096 10.2682 6.13568 10.4356C6.0504 10.603 6.00424 10.7842 6 10.9681V21.8445C6.00621 22.1882 6.15988 22.5167 6.42934 22.7623C6.6988 23.0079 7.06352 23.1518 7.44834 23.1645C9.8357 23.2773 14.666 23.6857 18.0051 25.1872C18.1193 25.2426 18.2476 25.2708 18.3775 25.2691C18.5075 25.2675 18.6348 25.236 18.7472 25.1778C18.8596 25.1196 18.9534 25.0365 19.0195 24.9366C19.0857 24.8368 19.1219 24.7234 19.1248 24.6074V12.5994C19.1264 12.4862 19.0948 12.3746 19.0331 12.2757C18.9715 12.1767 18.882 12.0939 18.7735 12.0353V12.0398ZM32.3697 9.6459C29.7257 9.78015 24.4695 10.2675 21.2253 12.0398C21.1179 12.0994 21.0294 12.1825 20.9681 12.2813C20.9069 12.38 20.8749 12.491 20.8752 12.6039V24.6062C20.8775 24.7228 20.9136 24.8369 20.9798 24.9374C21.046 25.0379 21.1402 25.1214 21.2533 25.1798C21.3663 25.2383 21.4943 25.2697 21.6249 25.271C21.7555 25.2723 21.8843 25.2434 21.9987 25.1872C25.3365 23.6879 30.1643 23.2784 32.5517 23.1667C32.9366 23.1538 33.3013 23.0096 33.5707 22.7638C33.8402 22.5181 33.9938 22.1895 34 21.8457V10.9681C33.9958 10.7841 33.9496 10.6028 33.8642 10.4353C33.7789 10.2678 33.6561 10.1176 33.5036 9.99384C33.351 9.8701 33.1717 9.77542 32.9768 9.7156C32.7818 9.65577 32.5752 9.63206 32.3697 9.6459V9.6459Z" fill="#CAE063"/>
</svg>
