<svg width="73" height="37" viewBox="0 0 73 37" fill="none" xmlns="http://www.w3.org/2000/svg">
<path d="M1.692 29.276V31.751H4.95V32.327H1.692V35H1.026V28.7H5.346V29.276H1.692ZM10.5501 32.831H6.59011C6.62611 33.323 6.81511 33.722 7.15711 34.028C7.49911 34.328 7.93111 34.478 8.45311 34.478C8.74711 34.478 9.01711 34.427 9.26311 34.325C9.50911 34.217 9.72211 34.061 9.90211 33.857L10.2621 34.271C10.0521 34.523 9.78811 34.715 9.47011 34.847C9.15811 34.979 8.81311 35.045 8.43511 35.045C7.94911 35.045 7.51711 34.943 7.13911 34.739C6.76711 34.529 6.47611 34.241 6.26611 33.875C6.05611 33.509 5.95111 33.095 5.95111 32.633C5.95111 32.171 6.05011 31.757 6.24811 31.391C6.45211 31.025 6.72811 30.74 7.07611 30.536C7.43011 30.332 7.82611 30.23 8.26411 30.23C8.70211 30.23 9.09511 30.332 9.44311 30.536C9.79111 30.74 10.0641 31.025 10.2621 31.391C10.4601 31.751 10.5591 32.165 10.5591 32.633L10.5501 32.831ZM8.26411 30.779C7.80811 30.779 7.42411 30.926 7.11211 31.22C6.80611 31.508 6.63211 31.886 6.59011 32.354H9.94711C9.90511 31.886 9.72811 31.508 9.41611 31.22C9.11011 30.926 8.72611 30.779 8.26411 30.779ZM11.8598 28.322H12.4988V35H11.8598V28.322ZM14.2767 28.322H14.9157V35H14.2767V28.322ZM18.6287 35.045C18.1727 35.045 17.7617 34.943 17.3957 34.739C17.0297 34.529 16.7417 34.241 16.5317 33.875C16.3217 33.509 16.2167 33.095 16.2167 32.633C16.2167 32.171 16.3217 31.757 16.5317 31.391C16.7417 31.025 17.0297 30.74 17.3957 30.536C17.7617 30.332 18.1727 30.23 18.6287 30.23C19.0847 30.23 19.4957 30.332 19.8617 30.536C20.2277 30.74 20.5127 31.025 20.7167 31.391C20.9267 31.757 21.0317 32.171 21.0317 32.633C21.0317 33.095 20.9267 33.509 20.7167 33.875C20.5127 34.241 20.2277 34.529 19.8617 34.739C19.4957 34.943 19.0847 35.045 18.6287 35.045ZM18.6287 34.478C18.9647 34.478 19.2647 34.403 19.5287 34.253C19.7987 34.097 20.0087 33.878 20.1587 33.596C20.3087 33.314 20.3837 32.993 20.3837 32.633C20.3837 32.273 20.3087 31.952 20.1587 31.67C20.0087 31.388 19.7987 31.172 19.5287 31.022C19.2647 30.866 18.9647 30.788 18.6287 30.788C18.2927 30.788 17.9897 30.866 17.7197 31.022C17.4557 31.172 17.2457 31.388 17.0897 31.67C16.9397 31.952 16.8647 32.273 16.8647 32.633C16.8647 32.993 16.9397 33.314 17.0897 33.596C17.2457 33.878 17.4557 34.097 17.7197 34.253C17.9897 34.403 18.2927 34.478 18.6287 34.478ZM29.1525 30.266L27.3615 35H26.7585L25.2645 31.121L23.7705 35H23.1675L21.3855 30.266H21.9975L23.4825 34.289L25.0035 30.266H25.5525L27.0645 34.289L28.5675 30.266H29.1525ZM37.0601 34.424V35H32.6051V28.7H36.9251V29.276H33.2711V31.517H36.5291V32.084H33.2711V34.424H37.0601ZM42.7403 28.322V35H42.1283V34.064C41.9363 34.382 41.6813 34.625 41.3633 34.793C41.0513 34.961 40.6973 35.045 40.3013 35.045C39.8573 35.045 39.4553 34.943 39.0953 34.739C38.7353 34.535 38.4533 34.25 38.2493 33.884C38.0453 33.518 37.9433 33.101 37.9433 32.633C37.9433 32.165 38.0453 31.748 38.2493 31.382C38.4533 31.016 38.7353 30.734 39.0953 30.536C39.4553 30.332 39.8573 30.23 40.3013 30.23C40.6853 30.23 41.0303 30.311 41.3363 30.473C41.6483 30.629 41.9033 30.86 42.1013 31.166V28.322H42.7403ZM40.3553 34.478C40.6853 34.478 40.9823 34.403 41.2463 34.253C41.5163 34.097 41.7263 33.878 41.8763 33.596C42.0323 33.314 42.1103 32.993 42.1103 32.633C42.1103 32.273 42.0323 31.952 41.8763 31.67C41.7263 31.388 41.5163 31.172 41.2463 31.022C40.9823 30.866 40.6853 30.788 40.3553 30.788C40.0193 30.788 39.7163 30.866 39.4463 31.022C39.1823 31.172 38.9723 31.388 38.8163 31.67C38.6663 31.952 38.5913 32.273 38.5913 32.633C38.5913 32.993 38.6663 33.314 38.8163 33.596C38.9723 33.878 39.1823 34.097 39.4463 34.253C39.7163 34.403 40.0193 34.478 40.3553 34.478ZM48.7859 30.266V35H48.1739V34.136C48.0059 34.424 47.7749 34.649 47.4809 34.811C47.1869 34.967 46.8509 35.045 46.4729 35.045C45.8549 35.045 45.3659 34.874 45.0059 34.532C44.6519 34.184 44.4749 33.677 44.4749 33.011V30.266H45.1139V32.948C45.1139 33.446 45.2369 33.824 45.4829 34.082C45.7289 34.34 46.0799 34.469 46.5359 34.469C47.0339 34.469 47.4269 34.319 47.7149 34.019C48.0029 33.713 48.1469 33.29 48.1469 32.75V30.266H48.7859ZM52.5376 35.045C52.0696 35.045 51.6496 34.943 51.2776 34.739C50.9116 34.535 50.6236 34.25 50.4136 33.884C50.2036 33.512 50.0986 33.095 50.0986 32.633C50.0986 32.171 50.2036 31.757 50.4136 31.391C50.6236 31.025 50.9116 30.74 51.2776 30.536C51.6496 30.332 52.0696 30.23 52.5376 30.23C52.9456 30.23 53.3086 30.311 53.6266 30.473C53.9506 30.629 54.2056 30.86 54.3916 31.166L53.9146 31.49C53.7586 31.256 53.5606 31.082 53.3206 30.968C53.0806 30.848 52.8196 30.788 52.5376 30.788C52.1956 30.788 51.8866 30.866 51.6106 31.022C51.3406 31.172 51.1276 31.388 50.9716 31.67C50.8216 31.952 50.7466 32.273 50.7466 32.633C50.7466 32.999 50.8216 33.323 50.9716 33.605C51.1276 33.881 51.3406 34.097 51.6106 34.253C51.8866 34.403 52.1956 34.478 52.5376 34.478C52.8196 34.478 53.0806 34.421 53.3206 34.307C53.5606 34.193 53.7586 34.019 53.9146 33.785L54.3916 34.109C54.2056 34.415 53.9506 34.649 53.6266 34.811C53.3026 34.967 52.9396 35.045 52.5376 35.045ZM57.3029 30.23C57.9209 30.23 58.3949 30.386 58.7249 30.698C59.0549 31.004 59.2199 31.46 59.2199 32.066V35H58.6079V34.262C58.4639 34.508 58.2509 34.7 57.9689 34.838C57.6929 34.976 57.3629 35.045 56.9789 35.045C56.4509 35.045 56.0309 34.919 55.7189 34.667C55.4069 34.415 55.2509 34.082 55.2509 33.668C55.2509 33.266 55.3949 32.942 55.6829 32.696C55.9769 32.45 56.4419 32.327 57.0779 32.327H58.5809V32.039C58.5809 31.631 58.4669 31.322 58.2389 31.112C58.0109 30.896 57.6779 30.788 57.2399 30.788C56.9399 30.788 56.6519 30.839 56.3759 30.941C56.0999 31.037 55.8629 31.172 55.6649 31.346L55.3769 30.869C55.6169 30.665 55.9049 30.509 56.2409 30.401C56.5769 30.287 56.9309 30.23 57.3029 30.23ZM57.0779 34.541C57.4379 34.541 57.7469 34.46 58.0049 34.298C58.2629 34.13 58.4549 33.89 58.5809 33.578V32.804H57.0959C56.2859 32.804 55.8809 33.086 55.8809 33.65C55.8809 33.926 55.9859 34.145 56.1959 34.307C56.4059 34.463 56.6999 34.541 57.0779 34.541ZM63.4485 34.712C63.3285 34.82 63.1785 34.904 62.9985 34.964C62.8245 35.018 62.6415 35.045 62.4495 35.045C62.0055 35.045 61.6635 34.925 61.4235 34.685C61.1835 34.445 61.0635 34.106 61.0635 33.668V30.806H60.2175V30.266H61.0635V29.231H61.7025V30.266H63.1425V30.806H61.7025V33.632C61.7025 33.914 61.7715 34.13 61.9095 34.28C62.0535 34.424 62.2575 34.496 62.5215 34.496C62.6535 34.496 62.7795 34.475 62.8995 34.433C63.0255 34.391 63.1335 34.331 63.2235 34.253L63.4485 34.712ZM66.3797 35.045C65.9237 35.045 65.5127 34.943 65.1467 34.739C64.7807 34.529 64.4927 34.241 64.2827 33.875C64.0727 33.509 63.9677 33.095 63.9677 32.633C63.9677 32.171 64.0727 31.757 64.2827 31.391C64.4927 31.025 64.7807 30.74 65.1467 30.536C65.5127 30.332 65.9237 30.23 66.3797 30.23C66.8357 30.23 67.2467 30.332 67.6127 30.536C67.9787 30.74 68.2637 31.025 68.4677 31.391C68.6777 31.757 68.7827 32.171 68.7827 32.633C68.7827 33.095 68.6777 33.509 68.4677 33.875C68.2637 34.241 67.9787 34.529 67.6127 34.739C67.2467 34.943 66.8357 35.045 66.3797 35.045ZM66.3797 34.478C66.7157 34.478 67.0157 34.403 67.2797 34.253C67.5497 34.097 67.7597 33.878 67.9097 33.596C68.0597 33.314 68.1347 32.993 68.1347 32.633C68.1347 32.273 68.0597 31.952 67.9097 31.67C67.7597 31.388 67.5497 31.172 67.2797 31.022C67.0157 30.866 66.7157 30.788 66.3797 30.788C66.0437 30.788 65.7407 30.866 65.4707 31.022C65.2067 31.172 64.9967 31.388 64.8407 31.67C64.6907 31.952 64.6157 32.273 64.6157 32.633C64.6157 32.993 64.6907 33.314 64.8407 33.596C64.9967 33.878 65.2067 34.097 65.4707 34.253C65.7407 34.403 66.0437 34.478 66.3797 34.478ZM70.6993 31.193C70.8493 30.875 71.0713 30.635 71.3653 30.473C71.6653 30.311 72.0343 30.23 72.4723 30.23V30.851L72.3193 30.842C71.8213 30.842 71.4313 30.995 71.1493 31.301C70.8673 31.607 70.7263 32.036 70.7263 32.588V35H70.0873V30.266H70.6993V31.193Z" fill="#231F20"/>
<path d="M34.077 2.95905H38.169L36.287 5.26904L34.077 2.95905Z" fill="#231F20"/>
<path d="M39.609 1.91304L39.299 1.58004C39.0518 1.31434 38.7525 1.10244 38.4197 0.957573C38.0869 0.812704 37.7279 0.737971 37.365 0.738037H33.698V1.35104C33.698 1.56892 33.741 1.78465 33.8247 1.98585C33.9083 2.18704 34.0308 2.36974 34.1853 2.52343C34.3397 2.67712 34.523 2.79879 34.7246 2.88144C34.9262 2.96408 35.1421 3.00609 35.36 3.00504L38.433 2.99903L39.609 1.91304Z" fill="#231F20"/>
<path d="M35.457 18.161C36.2283 18.7664 37.1998 19.0581 38.177 18.978L38.325 18.966L40.888 21.529L47.146 16.129L43.596 12.595L35.457 18.161Z" fill="#231F20"/>
<path d="M29.076 12.8951L24.154 17.8151L32.092 21.5331L36.28 17.3331C38.0021 17.2698 39.6364 16.5566 40.854 15.3371L45.387 10.8041C45.5072 10.6839 45.6025 10.5412 45.6675 10.3843C45.7325 10.2273 45.766 10.059 45.766 9.88906C45.766 9.71913 45.7325 9.55086 45.6675 9.39386C45.6025 9.23686 45.5072 9.09422 45.387 8.97406V8.97406C45.2668 8.8539 45.1242 8.75858 44.9672 8.69355C44.8102 8.62852 44.6419 8.59505 44.472 8.59505C44.3021 8.59505 44.1338 8.62852 43.9768 8.69355C43.8198 8.75858 43.6772 8.8539 43.557 8.97406L42.983 9.54805L44.183 8.34806C44.3032 8.2279 44.3985 8.08525 44.4635 7.92825C44.5285 7.77125 44.562 7.60299 44.562 7.43306C44.562 7.26312 44.5285 7.09486 44.4635 6.93786C44.3985 6.78087 44.3032 6.63821 44.183 6.51805V6.51805C44.0628 6.39789 43.9202 6.30258 43.7632 6.23755C43.6062 6.17252 43.4379 6.13905 43.268 6.13905C43.0981 6.13905 42.9298 6.17252 42.7728 6.23755C42.6158 6.30258 42.4732 6.39789 42.353 6.51805L41.154 7.72005L42.814 6.06005C42.9342 5.9399 43.0295 5.79725 43.0945 5.64025C43.1595 5.48326 43.193 5.31499 43.193 5.14505C43.193 4.97512 43.1595 4.80686 43.0945 4.64986C43.0295 4.49286 42.9342 4.35022 42.814 4.23006V4.23006C42.6938 4.1099 42.5512 4.01458 42.3942 3.94955C42.2372 3.88452 42.0689 3.85105 41.899 3.85105C41.7291 3.85105 41.5608 3.88452 41.4038 3.94955C41.2468 4.01458 41.1042 4.1099 40.984 4.23006L39.325 5.88906L41.442 3.77206C41.5622 3.6519 41.6575 3.50925 41.7225 3.35225C41.7875 3.19525 41.821 3.02699 41.821 2.85706C41.821 2.68712 41.7875 2.51886 41.7225 2.36186C41.6575 2.20487 41.5622 2.06221 41.442 1.94205V1.94205C41.3218 1.82189 41.1792 1.72658 41.0222 1.66155C40.8652 1.59652 40.6969 1.56305 40.527 1.56305C40.3571 1.56305 40.1888 1.59652 40.0318 1.66155C39.8748 1.72658 39.7322 1.82189 39.612 1.94205L36.286 5.26805" fill="#231F20"/>
<path d="M30.905 11.065L29.642 9.80203C29.5218 9.68187 29.3792 9.58656 29.2222 9.52153C29.0652 9.4565 28.8969 9.42303 28.727 9.42303C28.5571 9.42303 28.3888 9.4565 28.2318 9.52153C28.0748 9.58656 27.9321 9.68187 27.812 9.80203V9.80203C27.5696 10.0447 27.4335 10.3736 27.4335 10.7165C27.4335 11.0595 27.5696 11.3884 27.812 11.631L29.075 12.894C29.1951 13.0142 29.3378 13.1095 29.4948 13.1745C29.6518 13.2396 29.8201 13.273 29.99 13.273C30.1599 13.273 30.3282 13.2396 30.4852 13.1745C30.6422 13.1095 30.7848 13.0142 30.905 12.894C31.1474 12.6514 31.2835 12.3225 31.2835 11.9795C31.2835 11.6366 31.1474 11.3077 30.905 11.065Z" fill="#231F20"/>
<path d="M32.735 9.23605L30.845 7.34605C30.7248 7.22589 30.5822 7.13057 30.4252 7.06554C30.2682 7.00051 30.0999 6.96704 29.93 6.96704C29.7601 6.96704 29.5918 7.00051 29.4348 7.06554C29.2778 7.13057 29.1351 7.22589 29.015 7.34605V7.34605C28.7726 7.58869 28.6365 7.9176 28.6365 8.26054C28.6365 8.60349 28.7726 8.93242 29.015 9.17505L30.905 11.065C31.0251 11.1852 31.1678 11.2805 31.3248 11.3456C31.4818 11.4106 31.6501 11.4441 31.82 11.4441C31.9899 11.4441 32.1582 11.4106 32.3152 11.3456C32.4722 11.2805 32.6148 11.1852 32.735 11.065C32.9774 10.8224 33.1135 10.4935 33.1135 10.1505C33.1135 9.8076 32.9774 9.47869 32.735 9.23605V9.23605Z" fill="#231F20"/>
<path d="M34.564 7.40601L32.216 5.05801C31.9734 4.81565 31.6444 4.6795 31.3015 4.6795C30.9586 4.6795 30.6296 4.81565 30.387 5.05801V5.05801C30.1446 5.30065 30.0085 5.62956 30.0085 5.97251C30.0085 6.31546 30.1446 6.64438 30.387 6.88701L32.735 9.23502C32.8551 9.35518 32.9978 9.45049 33.1548 9.51552C33.3118 9.58055 33.4801 9.61402 33.65 9.61402C33.8199 9.61402 33.9882 9.58055 34.1452 9.51552C34.3022 9.45049 34.4448 9.35518 34.565 9.23502C34.8072 8.99225 34.9432 8.66325 34.943 8.3203C34.9428 7.97736 34.8065 7.64851 34.564 7.40601Z" fill="#231F20"/>
<path d="M36.394 5.57603L33.589 2.77103C33.3464 2.52866 33.0174 2.39252 32.6745 2.39252C32.3315 2.39252 32.0026 2.52866 31.76 2.77103V2.77103C31.6398 2.89119 31.5445 3.03383 31.4795 3.19083C31.4145 3.34782 31.381 3.51609 31.381 3.68602C31.381 3.85595 31.4145 4.02422 31.4795 4.18122C31.5445 4.33822 31.6398 4.48086 31.76 4.60102L34.565 7.40602C34.8076 7.64839 35.1365 7.78453 35.4795 7.78453C35.8224 7.78453 36.1514 7.64839 36.394 7.40602V7.40602C36.5141 7.28586 36.6095 7.14322 36.6745 6.98622C36.7395 6.82923 36.773 6.66095 36.773 6.49102C36.773 6.32109 36.7395 6.15282 36.6745 5.99583C36.6095 5.83883 36.5141 5.69619 36.394 5.57603Z" fill="#231F20"/>
<path d="M47.472 15.801L46.332 14.67C46.2884 14.6268 46.2367 14.5926 46.1799 14.5694C46.1231 14.5461 46.0623 14.5343 46.0009 14.5346C45.9395 14.5349 45.8788 14.5472 45.8222 14.571C45.7656 14.5947 45.7142 14.6294 45.671 14.673C45.6278 14.7166 45.5936 14.7683 45.5704 14.8251C45.5471 14.8819 45.5353 14.9427 45.5356 15.0041C45.5359 15.0655 45.5482 15.1262 45.572 15.1828C45.5957 15.2394 45.6304 15.2908 45.674 15.334L46.814 16.465C46.902 16.5523 47.0212 16.6009 47.1451 16.6004C47.2691 16.5998 47.3878 16.55 47.475 16.462C47.5623 16.3739 47.6109 16.2548 47.6104 16.1309C47.6098 16.0069 47.56 15.8883 47.472 15.801Z" fill="white"/>
<path d="M44.508 13.512C44.4429 13.5774 44.3986 13.6606 44.3808 13.7512C44.363 13.8417 44.3723 13.9355 44.4077 14.0207C44.4432 14.1059 44.503 14.1787 44.5798 14.2299C44.6565 14.2811 44.7467 14.3084 44.839 14.3084C44.9313 14.3084 45.0215 14.2811 45.0982 14.2299C45.175 14.1787 45.2348 14.1059 45.2702 14.0207C45.3056 13.9355 45.315 13.8417 45.2972 13.7512C45.2793 13.6606 45.2351 13.5774 45.17 13.512C45.1265 13.4685 45.0749 13.434 45.0181 13.4104C44.9612 13.3869 44.9003 13.3748 44.8388 13.3749C44.7773 13.375 44.7164 13.3873 44.6596 13.411C44.6028 13.4347 44.5513 13.4693 44.508 13.513V13.512Z" fill="white"/>
<path d="M38.651 18.636C38.6029 18.5881 38.5451 18.5512 38.4813 18.5279C38.4176 18.5046 38.3496 18.4954 38.282 18.501L38.134 18.513C37.4563 18.5692 36.7772 18.4216 36.184 18.089L36.484 17.789C38.2573 17.6811 39.9294 16.9269 41.184 15.669L45.717 11.136C45.9393 10.9139 46.0981 10.6362 46.1768 10.332C46.2555 10.0277 46.2513 9.70795 46.1647 9.40586C46.078 9.10376 45.9121 8.83038 45.6841 8.61411C45.456 8.39784 45.1742 8.24657 44.868 8.17602C44.9819 7.93053 45.0377 7.6621 45.0311 7.39156C45.0245 7.12102 44.9556 6.85564 44.8299 6.616C44.7042 6.37636 44.525 6.16889 44.3061 6.0097C44.0873 5.8505 43.8347 5.74385 43.568 5.69802C43.6482 5.45783 43.6755 5.20315 43.6482 4.95141C43.6208 4.69967 43.5394 4.45681 43.4095 4.23945C43.2796 4.02209 43.1043 3.83536 42.8955 3.69203C42.6868 3.5487 42.4495 3.45216 42.2 3.40902C42.3099 3.07411 42.3168 2.71393 42.2199 2.37504C42.123 2.03615 41.9266 1.73412 41.6562 1.50799C41.3858 1.28186 41.0538 1.14202 40.7031 1.10655C40.3525 1.07108 39.9992 1.14161 39.689 1.30902L39.644 1.26102C39.3527 0.948789 39.0004 0.69972 38.6089 0.529251C38.2174 0.358783 37.795 0.270549 37.368 0.27002H33.696C33.5721 0.27002 33.4534 0.31922 33.3658 0.406799C33.2782 0.494379 33.229 0.613162 33.229 0.737019V1.35002C33.2288 1.59118 33.2698 1.8306 33.35 2.05802C33.0383 1.9286 32.696 1.89148 32.3638 1.95106C32.0316 2.01065 31.7235 2.16444 31.4762 2.39412C31.229 2.62381 31.0529 2.91972 30.969 3.24661C30.8851 3.57351 30.8969 3.91764 31.003 4.23802C30.7534 4.28094 30.516 4.37717 30.307 4.52017C30.098 4.66317 29.9223 4.84957 29.7919 5.06665C29.6615 5.28373 29.5794 5.52638 29.5513 5.77806C29.5232 6.02973 29.5497 6.28451 29.629 6.52502C29.3624 6.57075 29.11 6.67726 28.8913 6.83629C28.6725 6.99532 28.4934 7.20259 28.3676 7.44203C28.2419 7.68148 28.173 7.94666 28.1663 8.21701C28.1596 8.48737 28.2153 8.75564 28.329 9.00102C28.0227 9.07161 27.7408 9.22292 27.5127 9.43924C27.2846 9.65555 27.1185 9.92899 27.0318 10.2311C26.9451 10.5333 26.9408 10.8532 27.0194 11.1575C27.0981 11.4619 27.2567 11.7397 27.479 11.962L28.411 12.894L23.825 17.485C23.7373 17.5727 23.6881 17.6916 23.6881 17.8155C23.6881 17.9395 23.7373 18.0584 23.825 18.146C23.9126 18.2337 24.0315 18.2829 24.1555 18.2829C24.2795 18.2829 24.3983 18.2337 24.486 18.146L29.12 13.509C29.3929 13.6643 29.7023 13.7437 30.0163 13.7391C30.3302 13.7345 30.6372 13.646 30.9054 13.4828C31.1736 13.3195 31.3933 13.0875 31.5416 12.8108C31.6899 12.5341 31.7615 12.2227 31.749 11.909H31.82C32.0512 11.9093 32.2803 11.8639 32.494 11.7756C32.7077 11.6873 32.9019 11.5576 33.0654 11.3942C33.229 11.2307 33.3587 11.0366 33.4472 10.8229C33.5357 10.6093 33.5811 10.3803 33.581 10.149C33.581 10.125 33.581 10.102 33.581 10.078H33.651C33.8822 10.0783 34.1113 10.0329 34.325 9.9446C34.5387 9.85626 34.7329 9.72664 34.8964 9.56317C35.06 9.3997 35.1897 9.20559 35.2782 8.99193C35.3667 8.77827 35.4121 8.54927 35.412 8.31802C35.412 8.29402 35.412 8.27102 35.412 8.24702H35.482C35.8154 8.24722 36.142 8.15271 36.4238 7.97448C36.7056 7.79626 36.931 7.54165 37.0737 7.24031C37.2164 6.93897 37.2706 6.60329 37.2299 6.27235C37.1892 5.94142 37.0554 5.62884 36.844 5.37102L39.944 2.27102C40.0208 2.19426 40.1119 2.13337 40.2122 2.09183C40.3125 2.05029 40.4199 2.02891 40.5285 2.02891C40.637 2.02891 40.7445 2.05029 40.8448 2.09183C40.9451 2.13337 41.0362 2.19426 41.113 2.27102C41.1898 2.34778 41.2506 2.4389 41.2922 2.53919C41.3337 2.63948 41.3551 2.74697 41.3551 2.85552C41.3551 2.96407 41.3337 3.07156 41.2922 3.17185C41.2506 3.27214 41.1898 3.36326 41.113 3.44002L40.656 3.89702L38.995 5.55902C38.9516 5.60242 38.9172 5.65395 38.8937 5.71065C38.8702 5.76736 38.8581 5.82814 38.8581 5.88952C38.8581 5.9509 38.8702 6.01168 38.8937 6.06838C38.9172 6.12509 38.9516 6.17662 38.995 6.22002C39.0384 6.26342 39.0899 6.29785 39.1466 6.32134C39.2033 6.34483 39.2641 6.35692 39.3255 6.35692C39.3869 6.35692 39.4477 6.34483 39.5044 6.32134C39.5611 6.29785 39.6126 6.26342 39.656 6.22002L41.315 4.56102C41.3918 4.48426 41.4829 4.42337 41.5832 4.38183C41.6835 4.34029 41.7909 4.31891 41.8995 4.31891C42.008 4.31891 42.1155 4.34029 42.2158 4.38183C42.3161 4.42337 42.4072 4.48426 42.484 4.56102C42.5608 4.63778 42.6216 4.7289 42.6632 4.82919C42.7047 4.92948 42.7261 5.03697 42.7261 5.14552C42.7261 5.25407 42.7047 5.36156 42.6632 5.46185C42.6216 5.56214 42.5608 5.65326 42.484 5.73002L42.027 6.18702L40.827 7.38702C40.7836 7.43042 40.7492 7.48195 40.7257 7.53865C40.7022 7.59536 40.6901 7.65614 40.6901 7.71752C40.6901 7.7789 40.7022 7.83968 40.7257 7.89639C40.7492 7.95309 40.7836 8.00462 40.827 8.04802C40.8704 8.09142 40.9219 8.12585 40.9786 8.14934C41.0353 8.17283 41.0961 8.18492 41.1575 8.18492C41.2189 8.18492 41.2797 8.17283 41.3364 8.14934C41.3931 8.12585 41.4446 8.09142 41.488 8.04802L42.688 6.84802C42.7648 6.77126 42.8559 6.71037 42.9562 6.66883C43.0565 6.62729 43.1639 6.60591 43.2725 6.60591C43.381 6.60591 43.4885 6.62729 43.5888 6.66883C43.6891 6.71037 43.7802 6.77126 43.857 6.84802C43.9338 6.92478 43.9946 7.0159 44.0362 7.11619C44.0777 7.21648 44.0991 7.32397 44.0991 7.43252C44.0991 7.54107 44.0777 7.64856 44.0362 7.74885C43.9946 7.84914 43.9338 7.94026 43.857 8.01702L43.229 8.64502L42.655 9.21902C42.6116 9.26242 42.5772 9.31395 42.5537 9.37065C42.5302 9.42736 42.5181 9.48814 42.5181 9.54952C42.5181 9.6109 42.5302 9.67168 42.5537 9.72838C42.5772 9.78509 42.6116 9.83662 42.655 9.88002C42.6984 9.92342 42.7499 9.95785 42.8066 9.98134C42.8633 10.0048 42.9241 10.0169 42.9855 10.0169C43.0469 10.0169 43.1077 10.0048 43.1644 9.98134C43.2211 9.95785 43.2726 9.92342 43.316 9.88002L43.889 9.30902C44.044 9.15413 44.2542 9.06717 44.4733 9.06727C44.6925 9.06736 44.9026 9.1545 45.0575 9.30952C45.2124 9.46454 45.2993 9.67474 45.2992 9.89387C45.2992 10.113 45.212 10.3231 45.057 10.478L40.524 15.009C39.3906 16.1453 37.8679 16.8087 36.264 16.865C36.1457 16.8693 36.0335 16.9182 35.95 17.002L31.762 21.202C31.6745 21.2898 31.6254 21.4088 31.6256 21.5327C31.6258 21.6567 31.6752 21.7755 31.763 21.863C31.8508 21.9505 31.9697 21.9996 32.0937 21.9994C32.2177 21.9992 32.3365 21.9498 32.424 21.862L35.504 18.77C36.2878 19.2733 37.2126 19.5114 38.142 19.449L40.553 21.86C40.6406 21.9477 40.7595 21.9969 40.8835 21.9969C41.0075 21.9969 41.1263 21.9477 41.214 21.86C41.3016 21.7724 41.3509 21.6535 41.3509 21.5295C41.3509 21.4056 41.3016 21.2867 41.214 21.199L38.651 18.636ZM34.163 1.20902H37.363C37.6615 1.20951 37.9567 1.27126 38.2304 1.39047C38.5041 1.50967 38.7503 1.68378 38.954 1.90202L38.973 1.92202L36.189 4.70902L34.905 3.42502C35.0519 3.45668 35.2017 3.47277 35.352 3.47302H35.362L36.644 3.46702C36.768 3.46702 36.8869 3.41776 36.9746 3.33009C37.0622 3.24242 37.1115 3.12351 37.1115 2.99952C37.1115 2.87553 37.0622 2.75662 36.9746 2.66895C36.8869 2.58127 36.768 2.53202 36.644 2.53202V2.53202L35.362 2.53802H35.356C35.0412 2.53802 34.7393 2.41296 34.5167 2.19036C34.2941 1.96775 34.169 1.66583 34.169 1.35102V1.20902H34.163ZM30.575 12.565C30.4983 12.6418 30.4072 12.7028 30.3069 12.7444C30.2066 12.786 30.0991 12.8074 29.9905 12.8074C29.8819 12.8074 29.7744 12.786 29.6741 12.7444C29.5738 12.7028 29.4827 12.6418 29.406 12.565L28.143 11.302C28.0662 11.2253 28.0053 11.1341 27.9638 11.0338C27.9223 10.9336 27.9009 10.8261 27.9009 10.7175C27.9009 10.609 27.9223 10.5015 27.9638 10.4012C28.0053 10.3009 28.0662 10.2098 28.143 10.133C28.2198 10.0563 28.3109 9.99537 28.4112 9.95383C28.5115 9.91229 28.6189 9.89091 28.7275 9.89091C28.836 9.89091 28.9435 9.91229 29.0438 9.95383C29.1441 9.99537 29.2352 10.0563 29.312 10.133L30.575 11.396C30.7299 11.5511 30.8169 11.7613 30.8169 11.9805C30.8169 12.1997 30.7299 12.4099 30.575 12.565V12.565ZM32.647 10.151C32.6472 10.3146 32.5988 10.4745 32.508 10.6105C32.4172 10.7465 32.288 10.8525 32.1369 10.9151C31.9858 10.9776 31.8195 10.9939 31.6591 10.9619C31.4987 10.9298 31.3515 10.8509 31.236 10.735L29.973 9.47202L29.345 8.84402C29.19 8.689 29.1029 8.47875 29.1029 8.25952C29.1029 8.04029 29.19 7.83004 29.345 7.67502C29.5 7.52 29.7103 7.43291 29.9295 7.43291C30.1487 7.43291 30.359 7.52 30.514 7.67502L32.404 9.56502C32.4812 9.64178 32.5423 9.73311 32.5838 9.83372C32.6254 9.93432 32.6465 10.0422 32.646 10.151H32.647ZM34.476 8.32102C34.4762 8.48457 34.4278 8.64449 34.337 8.78052C34.2461 8.91654 34.117 9.02255 33.9659 9.08509C33.8148 9.14764 33.6485 9.16391 33.4881 9.13186C33.3277 9.0998 33.1805 9.02085 33.065 8.90502L30.717 6.55802C30.6402 6.48107 30.5794 6.38974 30.5379 6.28927C30.4965 6.1888 30.4752 6.08115 30.4753 5.97246C30.4755 5.86377 30.497 5.75617 30.5387 5.6558C30.5805 5.55544 30.6415 5.46428 30.7185 5.38752C30.7954 5.31076 30.8868 5.24991 30.9872 5.20845C31.0877 5.16698 31.1954 5.14571 31.3041 5.14585C31.4127 5.14599 31.5203 5.16754 31.6207 5.20926C31.7211 5.25098 31.8122 5.31206 31.889 5.38902L32.959 6.45902L34.237 7.73702C34.3134 7.81379 34.3738 7.90491 34.4148 8.00514C34.4559 8.10537 34.4766 8.21272 34.476 8.32102V8.32102ZM36.063 7.07602C35.9079 7.23094 35.6977 7.31796 35.4785 7.31796C35.2593 7.31796 35.0491 7.23094 34.894 7.07602L32.547 4.72802L32.089 4.27102C31.934 4.116 31.8469 3.90575 31.8469 3.68652C31.8469 3.46729 31.934 3.25704 32.089 3.10202C32.244 2.947 32.4543 2.85991 32.6735 2.85991C32.8927 2.85991 33.103 2.947 33.258 3.10202L36.063 5.90902C36.2179 6.06409 36.3049 6.27432 36.3049 6.49352C36.3049 6.71272 36.2179 6.92295 36.063 7.07802V7.07602Z" fill="white"/>
</svg>
