<svg width="512" height="512" viewBox="0 0 512 512" fill="none" xmlns="http://www.w3.org/2000/svg">
<path d="M256 9.48148C190.153 9.48148 128.246 35.1239 81.685 81.685C35.1239 128.246 9.48148 190.153 9.48148 256C9.48148 321.847 35.1239 383.754 81.685 430.315C128.246 476.876 190.153 502.518 256 502.518C321.847 502.518 383.754 476.876 430.315 430.315C476.876 383.754 502.518 321.847 502.518 256C502.518 190.153 476.876 128.246 430.315 81.685C383.754 35.1239 321.847 9.48148 256 9.48148ZM256 0C397.385 0 512 114.615 512 256C512 397.385 397.385 512 256 512C114.615 512 0 397.385 0 256C0 114.615 114.615 0 256 0Z" fill="#231F20"/>
<path d="M273.692 314.197H272.801C270.129 314.499 267.63 315.672 265.69 317.535L217.885 365.511C207.773 375.623 194.059 381.303 179.759 381.303C165.46 381.303 151.746 375.623 141.634 365.511C131.523 355.4 125.843 341.686 125.843 327.386C125.843 313.087 131.523 299.373 141.634 289.261L192.417 238.478C194.989 235.903 197.816 233.597 200.856 231.595C204.288 229.335 207.965 227.471 211.816 226.039C215.408 224.721 219.135 223.805 222.929 223.308C225.441 222.954 227.976 222.783 230.514 222.796C231.557 222.796 232.581 222.796 233.927 222.948C246.983 223.744 259.3 229.272 268.572 238.497C274.274 244.187 278.605 251.1 281.24 258.712C282.197 261.558 284.217 263.925 286.878 265.317C289.539 266.709 292.635 267.02 295.519 266.183C295.519 266.183 295.671 266.183 295.746 266.183C295.822 266.183 295.898 266.183 295.898 266.183C298.782 265.304 301.209 263.333 302.661 260.69C304.113 258.048 304.476 254.943 303.673 252.037C300.429 240.477 294.142 229.999 285.468 221.696C273.882 210.096 258.931 202.445 242.745 199.832C241.342 199.604 239.938 199.396 238.516 199.244C235.789 198.951 233.048 198.806 230.305 198.808C228.409 198.808 226.513 198.808 224.616 199.035C220.577 199.341 216.569 199.975 212.632 200.932C211.816 201.083 211.077 201.311 210.261 201.52C205.283 202.834 200.448 204.645 195.831 206.924C188.224 210.659 181.296 215.639 175.332 221.658L124.53 272.479C110.045 287.115 101.928 306.88 101.945 327.472C101.939 342.853 106.495 357.892 115.037 370.683C123.58 383.475 135.725 393.445 149.936 399.332C164.146 405.22 179.784 406.759 194.87 403.757C209.956 400.754 223.812 393.344 234.686 382.464L283.022 334.128C284.713 332.424 285.84 330.242 286.25 327.877C286.661 325.512 286.335 323.078 285.317 320.904C284.3 318.73 282.639 316.921 280.56 315.722C278.481 314.523 276.084 313.99 273.692 314.197V314.197Z" fill="#231F20"/>
<path d="M382.483 124.739C367.862 110.184 348.073 102.013 327.443 102.013C306.813 102.013 287.023 110.184 272.403 124.739L225.242 171.9C223.634 173.508 222.52 175.543 222.032 177.764C221.544 179.985 221.703 182.3 222.488 184.434C223.274 186.568 224.655 188.433 226.467 189.807C228.279 191.182 230.446 192.008 232.713 192.19C234.446 192.341 236.192 192.114 237.829 191.525C239.466 190.935 240.955 189.998 242.195 188.777L289.431 141.692C299.543 131.58 313.257 125.9 327.556 125.9C341.856 125.9 355.57 131.58 365.682 141.692C375.793 151.803 381.473 165.517 381.473 179.817C381.473 194.116 375.793 207.83 365.682 217.942L314.899 268.724C312.327 271.3 309.499 273.606 306.46 275.608C303.028 277.868 299.351 279.732 295.5 281.164C291.908 282.482 288.181 283.398 284.387 283.895C281.875 284.249 279.34 284.42 276.802 284.407C275.759 284.407 274.659 284.407 273.389 284.255C263.095 283.668 253.193 280.102 244.888 273.992C236.583 267.881 230.232 259.49 226.607 249.837C225.573 247.086 223.551 244.818 220.936 243.475C218.321 242.133 215.3 241.812 212.461 242.574C210.895 242.987 209.429 243.713 208.151 244.709C206.874 245.705 205.812 246.95 205.031 248.369C204.249 249.787 203.763 251.349 203.603 252.961C203.442 254.573 203.611 256.2 204.098 257.745C207.575 268.299 213.6 277.835 221.639 285.507V285.507L221.791 285.658C234.386 298.221 250.901 306.097 268.591 307.978C271.318 308.27 274.059 308.416 276.802 308.414C278.724 308.414 280.62 308.338 282.491 308.186C287.31 307.805 292.087 307.012 296.77 305.816C301.749 304.502 306.583 302.691 311.201 300.412C318.807 296.677 325.736 291.697 331.7 285.677L382.483 234.894C397.064 220.263 405.238 200.441 405.21 179.785C405.181 159.129 396.952 139.33 382.331 124.739H382.483Z" fill="#231F20"/>
</svg>
