<svg width="19" height="19" viewBox="0 0 19 19" fill="none" xmlns="http://www.w3.org/2000/svg">
<path d="M9.40801 18.665C14.3294 18.665 18.319 14.6754 18.319 9.75402C18.319 4.83261 14.3294 0.843018 9.40801 0.843018C4.4866 0.843018 0.497009 4.83261 0.497009 9.75402C0.497009 14.6754 4.4866 18.665 9.40801 18.665Z" fill="white"/>
<path d="M9.40803 18.265C14.1085 18.265 17.919 14.4545 17.919 9.75402C17.919 5.05352 14.1085 1.24302 9.40803 1.24302C4.70754 1.24302 0.897034 5.05352 0.897034 9.75402C0.897034 14.4545 4.70754 18.265 9.40803 18.265Z" stroke="#231F20" stroke-width="0.8"/>
<path d="M9.38623 12.4719C9.53011 12.4719 9.65706 12.4931 9.76709 12.5354C9.87712 12.5735 9.9681 12.6243 10.04 12.6877C10.1162 12.7512 10.1733 12.8232 10.2114 12.9036C10.2495 12.984 10.2686 13.0665 10.2686 13.1511C10.2686 13.24 10.2495 13.3267 10.2114 13.4114C10.1733 13.4918 10.1162 13.5637 10.04 13.6272C9.9681 13.6907 9.87712 13.7436 9.76709 13.7859C9.65706 13.824 9.53011 13.843 9.38623 13.843C9.23812 13.843 9.10905 13.824 8.99902 13.7859C8.889 13.7436 8.7959 13.6907 8.71973 13.6272C8.64779 13.5637 8.59277 13.4918 8.55469 13.4114C8.5166 13.3267 8.49756 13.24 8.49756 13.1511C8.49756 13.0707 8.5166 12.9903 8.55469 12.9099C8.59277 12.8253 8.64779 12.7512 8.71973 12.6877C8.7959 12.6243 8.889 12.5735 8.99902 12.5354C9.10905 12.4931 9.23812 12.4719 9.38623 12.4719ZM8.5166 5.18481C8.5166 5.17635 8.51449 5.16789 8.51025 5.15942C8.51025 5.14673 8.51025 5.13403 8.51025 5.12134C8.51025 5.01131 8.53353 4.9161 8.58008 4.83569C8.63086 4.75106 8.69645 4.68123 8.77686 4.62622C8.85726 4.56698 8.94824 4.52466 9.0498 4.49927C9.1556 4.46965 9.26139 4.45483 9.36719 4.45483C9.47298 4.45483 9.57454 4.46965 9.67188 4.49927C9.77344 4.52466 9.8623 4.56698 9.93848 4.62622C10.0146 4.68123 10.076 4.75317 10.1226 4.84204C10.1691 4.92668 10.1924 5.02824 10.1924 5.14673V5.18481L9.98926 10.7263C9.98503 10.849 9.96387 10.9569 9.92578 11.05C9.8877 11.1389 9.83691 11.2151 9.77344 11.2786C9.71419 11.3378 9.64648 11.3844 9.57031 11.4182C9.49837 11.4478 9.42432 11.4626 9.34814 11.4626C9.27197 11.4626 9.1958 11.4478 9.11963 11.4182C9.04769 11.3844 8.9821 11.3378 8.92285 11.2786C8.86361 11.2151 8.81494 11.1389 8.77686 11.05C8.73877 10.9569 8.71761 10.849 8.71338 10.7263L8.5166 5.18481Z" fill="#231F20"/>
</svg>
