<svg width="43" height="38" viewBox="0 0 43 38" fill="none" xmlns="http://www.w3.org/2000/svg">
<path d="M2.43701 35.334V32.994H5.69501V32.427H2.43701V30.186H6.09101V29.61H1.77101V35.91H6.22601V35.334H2.43701ZM11.2672 29.232V32.076C10.8712 31.464 10.2232 31.14 9.46721 31.14C8.11721 31.14 7.10921 32.112 7.10921 33.543C7.10921 34.974 8.11721 35.955 9.46721 35.955C10.2502 35.955 10.9072 35.613 11.2942 34.974V35.91H11.9062V29.232H11.2672ZM9.52121 35.388C8.51321 35.388 7.75721 34.65 7.75721 33.543C7.75721 32.436 8.51321 31.698 9.52121 31.698C10.5202 31.698 11.2762 32.436 11.2762 33.543C11.2762 34.65 10.5202 35.388 9.52121 35.388ZM17.3128 31.176V33.66C17.3128 34.74 16.6918 35.379 15.7018 35.379C14.8018 35.379 14.2798 34.866 14.2798 33.858V31.176H13.6408V33.921C13.6408 35.28 14.4328 35.955 15.6388 35.955C16.3948 35.955 17.0068 35.622 17.3398 35.046V35.91H17.9518V31.176H17.3128ZM21.7035 35.955C22.5045 35.955 23.1795 35.631 23.5575 35.019L23.0805 34.695C22.7565 35.172 22.2525 35.388 21.7035 35.388C20.6685 35.388 19.9125 34.659 19.9125 33.543C19.9125 32.436 20.6685 31.698 21.7035 31.698C22.2525 31.698 22.7565 31.923 23.0805 32.4L23.5575 32.076C23.1795 31.455 22.5045 31.14 21.7035 31.14C20.2905 31.14 19.2645 32.13 19.2645 33.543C19.2645 34.956 20.2905 35.955 21.7035 35.955ZM26.4688 31.14C25.7218 31.14 25.0198 31.374 24.5428 31.779L24.8308 32.256C25.2178 31.914 25.7938 31.698 26.4058 31.698C27.2878 31.698 27.7468 32.139 27.7468 32.949V33.237H26.2438C24.8848 33.237 24.4168 33.849 24.4168 34.578C24.4168 35.397 25.0738 35.955 26.1448 35.955C26.9278 35.955 27.4858 35.658 27.7738 35.172V35.91H28.3858V32.976C28.3858 31.752 27.6928 31.14 26.4688 31.14ZM26.2438 35.451C25.4878 35.451 25.0468 35.109 25.0468 34.56C25.0468 34.074 25.3438 33.714 26.2618 33.714H27.7468V34.488C27.4948 35.109 26.9638 35.451 26.2438 35.451ZM32.3894 35.163C32.2094 35.325 31.9484 35.406 31.6874 35.406C31.1564 35.406 30.8684 35.1 30.8684 34.542V31.716H32.3084V31.176H30.8684V30.141H30.2294V31.176H29.3834V31.716H30.2294V34.578C30.2294 35.451 30.7244 35.955 31.6154 35.955C31.9844 35.955 32.3624 35.847 32.6144 35.622L32.3894 35.163ZM35.5456 35.955C36.9316 35.955 37.9486 34.947 37.9486 33.543C37.9486 32.139 36.9316 31.14 35.5456 31.14C34.1596 31.14 33.1336 32.139 33.1336 33.543C33.1336 34.947 34.1596 35.955 35.5456 35.955ZM35.5456 35.388C34.5376 35.388 33.7816 34.65 33.7816 33.543C33.7816 32.436 34.5376 31.698 35.5456 31.698C36.5536 31.698 37.3006 32.436 37.3006 33.543C37.3006 34.65 36.5536 35.388 35.5456 35.388ZM39.8652 32.103V31.176H39.2532V35.91H39.8922V33.498C39.8922 32.382 40.4952 31.752 41.4852 31.752C41.5302 31.752 41.5842 31.761 41.6382 31.761V31.14C40.7652 31.14 40.1622 31.473 39.8652 32.103Z" fill="#CAE063"/>
<path d="M26.013 4.93501C26.013 4.11342 25.7694 3.31029 25.3129 2.62717C24.8565 1.94405 24.2077 1.41162 23.4487 1.09721C22.6896 0.782806 21.8544 0.700543 21.0486 0.860826C20.2428 1.02111 19.5026 1.41674 18.9217 1.99769C18.3407 2.57863 17.9451 3.31881 17.7848 4.1246C17.6245 4.9304 17.7068 5.76563 18.0212 6.52467C18.3356 7.28372 18.8681 7.93249 19.5512 8.38893C20.2343 8.84538 21.0374 9.08901 21.859 9.08901C22.9607 9.08901 24.0173 8.65136 24.7963 7.87233C25.5754 7.0933 26.013 6.03672 26.013 4.93501ZM20.889 11.213C18.322 9.64101 14.164 9.21301 12.071 9.09101C11.9084 9.07888 11.7451 9.10001 11.591 9.1531C11.4368 9.2062 11.2951 9.29014 11.1745 9.39982C11.0539 9.50949 10.9569 9.64259 10.8894 9.791C10.8219 9.93941 10.7854 10.1 10.782 10.263V19.904C10.7869 20.2087 10.9085 20.4998 11.1217 20.7175C11.3349 20.9352 11.6235 21.0628 11.928 21.074C13.817 21.174 17.639 21.536 20.281 22.867C20.3714 22.9161 20.4729 22.941 20.5757 22.9396C20.6786 22.9381 20.7793 22.9102 20.8682 22.8586C20.9572 22.807 21.0314 22.7334 21.0837 22.6449C21.136 22.5563 21.1647 22.4558 21.167 22.353V11.709C21.1682 11.6087 21.1432 11.5098 21.0945 11.4221C21.0457 11.3344 20.9749 11.2609 20.889 11.209V11.213ZM31.647 9.09101C29.555 9.21001 25.396 9.64201 22.829 11.213C22.7441 11.2658 22.674 11.3395 22.6255 11.427C22.5771 11.5145 22.5518 11.613 22.552 11.713V22.352C22.5539 22.4553 22.5824 22.5564 22.6348 22.6455C22.6872 22.7346 22.7617 22.8086 22.8512 22.8604C22.9406 22.9122 23.0419 22.9401 23.1452 22.9412C23.2486 22.9424 23.3505 22.9168 23.441 22.867C26.082 21.538 29.902 21.175 31.791 21.076C32.0956 21.0645 32.3842 20.9367 32.5974 20.7189C32.8106 20.501 32.9321 20.2098 32.937 19.905V10.263C32.9337 10.0999 32.8971 9.93923 32.8296 9.79075C32.762 9.64227 32.6649 9.50912 32.5442 9.39943C32.4235 9.28974 32.2816 9.20582 32.1274 9.15279C31.9731 9.09976 31.8097 9.07874 31.647 9.09101Z" fill="#CAE063"/>
</svg>
