<svg width="29" height="38" viewBox="0 0 29 38" fill="none" xmlns="http://www.w3.org/2000/svg">
<path d="M6.52701 29.61V32.418H2.58501V29.61H1.91901V35.91H2.58501V33.003H6.52701V35.91H7.18401V29.61H6.52701ZM11.0403 35.955C12.4263 35.955 13.4433 34.947 13.4433 33.543C13.4433 32.139 12.4263 31.14 11.0403 31.14C9.65429 31.14 8.62829 32.139 8.62829 33.543C8.62829 34.947 9.65429 35.955 11.0403 35.955ZM11.0403 35.388C10.0323 35.388 9.27629 34.65 9.27629 33.543C9.27629 32.436 10.0323 31.698 11.0403 31.698C12.0483 31.698 12.7953 32.436 12.7953 33.543C12.7953 34.65 12.0483 35.388 11.0403 35.388ZM20.6519 31.14C19.7969 31.14 19.1219 31.527 18.7799 32.139C18.4919 31.473 17.8799 31.14 17.0969 31.14C16.3049 31.14 15.6929 31.473 15.3599 32.04V31.176H14.7479V35.91H15.3869V33.426C15.3869 32.346 16.0079 31.716 16.9709 31.716C17.8349 31.716 18.3389 32.229 18.3389 33.228V35.91H18.9779V33.426C18.9779 32.346 19.5899 31.716 20.5619 31.716C21.4169 31.716 21.9209 32.229 21.9209 33.228V35.91H22.5599V33.165C22.5599 31.806 21.8039 31.14 20.6519 31.14ZM28.4414 33.543C28.4414 32.121 27.4784 31.14 26.1464 31.14C24.8144 31.14 23.8334 32.139 23.8334 33.543C23.8334 34.947 24.8414 35.955 26.3174 35.955C27.0644 35.955 27.7214 35.685 28.1444 35.181L27.7844 34.767C27.4244 35.181 26.9114 35.388 26.3354 35.388C25.3004 35.388 24.5444 34.731 24.4724 33.741H28.4324C28.4324 33.669 28.4414 33.597 28.4414 33.543ZM26.1464 31.689C27.0734 31.689 27.7484 32.337 27.8294 33.264H24.4724C24.5534 32.337 25.2284 31.689 26.1464 31.689Z" fill="#CAE063"/>
<path d="M12.277 22.935V15.55H17.815V22.935H23.446V11.858H27.046L15.046 0.781006L3.04602 11.858H6.64602V22.935H12.277Z" fill="#CAE063"/>
</svg>
