<svg width="39" height="38" viewBox="0 0 39 38" fill="none" xmlns="http://www.w3.org/2000/svg">
<path d="M20.936 22.935C27.0537 22.935 32.013 17.9757 32.013 11.858C32.013 5.74035 27.0537 0.781006 20.936 0.781006C14.8184 0.781006 9.85901 5.74035 9.85901 11.858C9.85901 17.9757 14.8184 22.935 20.936 22.935Z" fill="#CAE063"/>
<path d="M20.978 5.04102C19.092 5.04102 17.548 6.96202 17.548 9.32802C17.548 11.694 19.092 13.615 20.978 13.615C22.864 13.615 24.407 11.694 24.407 9.32802C24.407 6.96202 22.864 5.04102 20.978 5.04102ZM17.394 13.615C16.5124 13.6556 15.6803 14.0342 15.0704 14.6722C14.4606 15.3101 14.1199 16.1585 14.119 17.041V18.756H27.837V17.041C27.8399 16.1571 27.5005 15.3063 26.89 14.6671C26.2794 14.0278 25.4452 13.6497 24.562 13.612C24.121 14.1364 23.5732 14.5606 22.9551 14.8563C22.3371 15.1521 21.663 15.3125 20.978 15.327C20.2932 15.3129 19.6193 15.1529 19.0013 14.8577C18.3833 14.5625 17.8353 14.1388 17.394 13.615Z" fill="white"/>
<path d="M6.13 35.91H6.832L3.952 29.61H3.295L0.415003 35.91H1.108L1.864 34.227H5.374L6.13 35.91ZM2.107 33.687L3.619 30.303L5.131 33.687H2.107ZM9.65723 35.955C10.4582 35.955 11.1332 35.631 11.5112 35.019L11.0342 34.695C10.7102 35.172 10.2062 35.388 9.65723 35.388C8.62223 35.388 7.86623 34.659 7.86623 33.543C7.86623 32.436 8.62223 31.698 9.65723 31.698C10.2062 31.698 10.7102 31.923 11.0342 32.4L11.5112 32.076C11.1332 31.455 10.4582 31.14 9.65723 31.14C8.24423 31.14 7.21823 32.13 7.21823 33.543C7.21823 34.956 8.24423 35.955 9.65723 35.955ZM14.6494 35.955C15.4504 35.955 16.1254 35.631 16.5034 35.019L16.0264 34.695C15.7024 35.172 15.1984 35.388 14.6494 35.388C13.6144 35.388 12.8584 34.659 12.8584 33.543C12.8584 32.436 13.6144 31.698 14.6494 31.698C15.1984 31.698 15.7024 31.923 16.0264 32.4L16.5034 32.076C16.1254 31.455 15.4504 31.14 14.6494 31.14C13.2364 31.14 12.2104 32.13 12.2104 33.543C12.2104 34.956 13.2364 35.955 14.6494 35.955ZM19.6146 35.955C21.0006 35.955 22.0176 34.947 22.0176 33.543C22.0176 32.139 21.0006 31.14 19.6146 31.14C18.2286 31.14 17.2026 32.139 17.2026 33.543C17.2026 34.947 18.2286 35.955 19.6146 35.955ZM19.6146 35.388C18.6066 35.388 17.8506 34.65 17.8506 33.543C17.8506 32.436 18.6066 31.698 19.6146 31.698C20.6226 31.698 21.3696 32.436 21.3696 33.543C21.3696 34.65 20.6226 35.388 19.6146 35.388ZM26.9492 31.176V33.66C26.9492 34.74 26.3282 35.379 25.3382 35.379C24.4382 35.379 23.9162 34.866 23.9162 33.858V31.176H23.2772V33.921C23.2772 35.28 24.0692 35.955 25.2752 35.955C26.0312 35.955 26.6432 35.622 26.9762 35.046V35.91H27.5882V31.176H26.9492ZM31.7898 31.14C30.9708 31.14 30.3318 31.473 29.9898 32.049V31.176H29.3778V35.91H30.0168V33.426C30.0168 32.346 30.6558 31.716 31.6728 31.716C32.5728 31.716 33.0948 32.229 33.0948 33.228V35.91H33.7338V33.165C33.7338 31.806 32.9418 31.14 31.7898 31.14ZM37.7367 35.163C37.5567 35.325 37.2957 35.406 37.0347 35.406C36.5037 35.406 36.2157 35.1 36.2157 34.542V31.716H37.6557V31.176H36.2157V30.141H35.5767V31.176H34.7307V31.716H35.5767V34.578C35.5767 35.451 36.0717 35.955 36.9627 35.955C37.3317 35.955 37.7097 35.847 37.9617 35.622L37.7367 35.163Z" fill="#CAE063"/>
</svg>
