<svg width="49" height="39" viewBox="0 0 49 39" fill="none" xmlns="http://www.w3.org/2000/svg">
<path d="M25.013 0.781006C20.863 0.781006 17.5 3.88101 17.5 7.70401C17.5 14.627 25.013 22.935 25.013 22.935C25.013 22.935 32.526 14.627 32.526 7.70401C32.526 3.88101 29.162 0.781006 25.013 0.781006ZM25.013 11.944C23.8413 11.9895 22.6994 11.5689 21.8372 10.7742C20.975 9.97947 20.4629 8.8755 20.413 7.70401C20.4629 6.53251 20.975 5.42854 21.8372 4.63385C22.6994 3.83915 23.8413 3.4185 25.013 3.46401C26.1847 3.4185 27.3266 3.83915 28.1888 4.63385C29.051 5.42854 29.5631 6.53251 29.613 7.70401C29.5631 8.8755 29.051 9.97947 28.1888 10.7742C27.3266 11.5689 26.1847 11.9895 25.013 11.944ZM22.102 7.70401C22.1324 6.96226 22.4561 6.26295 23.002 5.75982C23.5479 5.2567 24.2712 4.99095 25.013 5.02101C25.7549 4.99068 26.4785 5.25631 27.0246 5.75946C27.5707 6.26261 27.8946 6.96208 27.925 7.70401C27.8946 8.44575 27.5709 9.14507 27.025 9.64819C26.4791 10.1513 25.7558 10.4171 25.014 10.387C24.2721 10.4173 23.5485 10.1517 23.0024 9.64855C22.4563 9.1454 22.1324 8.44593 22.102 7.70401Z" fill="#CAE063"/>
<path d="M3.013 36.364C4.624 36.364 5.362 35.572 5.362 34.645C5.362 32.35 1.483 33.394 1.483 31.666C1.483 31.036 1.996 30.523 3.148 30.523C3.706 30.523 4.336 30.694 4.876 31.045L5.101 30.514C4.597 30.163 3.859 29.956 3.148 29.956C1.546 29.956 0.826 30.757 0.826 31.684C0.826 34.015 4.705 32.953 4.705 34.681C4.705 35.302 4.192 35.797 3.013 35.797C2.185 35.797 1.384 35.473 0.934 35.032L0.673 35.545C1.141 36.031 2.068 36.364 3.013 36.364ZM8.94611 35.563C8.76611 35.725 8.50511 35.806 8.24411 35.806C7.71311 35.806 7.42511 35.5 7.42511 34.942V32.116H8.86511V31.576H7.42511V30.541H6.78611V31.576H5.94011V32.116H6.78611V34.978C6.78611 35.851 7.28111 36.355 8.17211 36.355C8.54111 36.355 8.91911 36.247 9.17111 36.022L8.94611 35.563ZM11.9904 31.54C11.2434 31.54 10.5414 31.774 10.0644 32.179L10.3524 32.656C10.7394 32.314 11.3154 32.098 11.9274 32.098C12.8094 32.098 13.2684 32.539 13.2684 33.349V33.637H11.7654C10.4064 33.637 9.93836 34.249 9.93836 34.978C9.93836 35.797 10.5954 36.355 11.6664 36.355C12.4494 36.355 13.0074 36.058 13.2954 35.572V36.31H13.9074V33.376C13.9074 32.152 13.2144 31.54 11.9904 31.54ZM11.7654 35.851C11.0094 35.851 10.5684 35.509 10.5684 34.96C10.5684 34.474 10.8654 34.114 11.7834 34.114H13.2684V34.888C13.0164 35.509 12.4854 35.851 11.7654 35.851ZM18.9031 31.576L17.1211 35.599L15.3391 31.576H14.6731L16.7881 36.301L16.5811 36.76C16.3111 37.354 16.0231 37.552 15.6001 37.552C15.2581 37.552 14.9701 37.426 14.7361 37.192L14.4391 37.669C14.7271 37.957 15.1501 38.101 15.5911 38.101C16.2661 38.101 16.7701 37.804 17.1661 36.877L19.5331 31.576H18.9031ZM24.6605 36.364C26.2715 36.364 27.0095 35.572 27.0095 34.645C27.0095 32.35 23.1305 33.394 23.1305 31.666C23.1305 31.036 23.6435 30.523 24.7955 30.523C25.3535 30.523 25.9835 30.694 26.5235 31.045L26.7485 30.514C26.2445 30.163 25.5065 29.956 24.7955 29.956C23.1935 29.956 22.4735 30.757 22.4735 31.684C22.4735 34.015 26.3525 32.953 26.3525 34.681C26.3525 35.302 25.8395 35.797 24.6605 35.797C23.8325 35.797 23.0315 35.473 22.5815 35.032L22.3205 35.545C22.7885 36.031 23.7155 36.364 24.6605 36.364ZM30.5936 35.563C30.4136 35.725 30.1526 35.806 29.8916 35.806C29.3606 35.806 29.0726 35.5 29.0726 34.942V32.116H30.5126V31.576H29.0726V30.541H28.4336V31.576H27.5876V32.116H28.4336V34.978C28.4336 35.851 28.9286 36.355 29.8196 36.355C30.1886 36.355 30.5666 36.247 30.8186 36.022L30.5936 35.563ZM35.6088 31.576V34.06C35.6088 35.14 34.9878 35.779 33.9978 35.779C33.0978 35.779 32.5758 35.266 32.5758 34.258V31.576H31.9368V34.321C31.9368 35.68 32.7288 36.355 33.9348 36.355C34.6908 36.355 35.3028 36.022 35.6358 35.446V36.31H36.2478V31.576H35.6088ZM41.7185 29.632V32.476C41.3225 31.864 40.6745 31.54 39.9185 31.54C38.5685 31.54 37.5605 32.512 37.5605 33.943C37.5605 35.374 38.5685 36.355 39.9185 36.355C40.7015 36.355 41.3585 36.013 41.7455 35.374V36.31H42.3575V29.632H41.7185ZM39.9725 35.788C38.9645 35.788 38.2085 35.05 38.2085 33.943C38.2085 32.836 38.9645 32.098 39.9725 32.098C40.9715 32.098 41.7275 32.836 41.7275 33.943C41.7275 35.05 40.9715 35.788 39.9725 35.788ZM47.4851 31.576L45.7031 35.599L43.9211 31.576H43.2551L45.3701 36.301L45.1631 36.76C44.8931 37.354 44.6051 37.552 44.1821 37.552C43.8401 37.552 43.5521 37.426 43.3181 37.192L43.0211 37.669C43.3091 37.957 43.7321 38.101 44.1731 38.101C44.8481 38.101 45.3521 37.804 45.7481 36.877L48.1151 31.576H47.4851Z" fill="#CAE063"/>
</svg>
