<svg width="37" height="38" viewBox="0 0 37 38" fill="none" xmlns="http://www.w3.org/2000/svg">
<path d="M1.229 35.91H5.423V35.334H1.895V29.61H1.229V35.91ZM10.4545 33.543C10.4545 32.121 9.4915 31.14 8.1595 31.14C6.8275 31.14 5.8465 32.139 5.8465 33.543C5.8465 34.947 6.8545 35.955 8.3305 35.955C9.0775 35.955 9.7345 35.685 10.1575 35.181L9.7975 34.767C9.4375 35.181 8.9245 35.388 8.3485 35.388C7.3135 35.388 6.5575 34.731 6.4855 33.741H10.4455C10.4455 33.669 10.4545 33.597 10.4545 33.543ZM8.1595 31.689C9.0865 31.689 9.7615 32.337 9.8425 33.264H6.4855C6.5665 32.337 7.2415 31.689 8.1595 31.689ZM13.2793 31.14C12.5323 31.14 11.8303 31.374 11.3533 31.779L11.6413 32.256C12.0283 31.914 12.6043 31.698 13.2163 31.698C14.0983 31.698 14.5573 32.139 14.5573 32.949V33.237H13.0543C11.6953 33.237 11.2273 33.849 11.2273 34.578C11.2273 35.397 11.8843 35.955 12.9553 35.955C13.7383 35.955 14.2963 35.658 14.5843 35.172V35.91H15.1963V32.976C15.1963 31.752 14.5033 31.14 13.2793 31.14ZM13.0543 35.451C12.2983 35.451 11.8573 35.109 11.8573 34.56C11.8573 34.074 12.1543 33.714 13.0723 33.714H14.5573V34.488C14.3053 35.109 13.7743 35.451 13.0543 35.451ZM17.5439 32.103V31.176H16.9319V35.91H17.5709V33.498C17.5709 32.382 18.1739 31.752 19.1639 31.752C19.2089 31.752 19.2629 31.761 19.3169 31.761V31.14C18.4439 31.14 17.8409 31.473 17.5439 32.103ZM22.8859 31.14C22.0669 31.14 21.4279 31.473 21.0859 32.049V31.176H20.4739V35.91H21.1129V33.426C21.1129 32.346 21.7519 31.716 22.7689 31.716C23.6689 31.716 24.1909 32.229 24.1909 33.228V35.91H24.8299V33.165C24.8299 31.806 24.0379 31.14 22.8859 31.14ZM30.7133 33.543C30.7133 32.121 29.7503 31.14 28.4183 31.14C27.0863 31.14 26.1053 32.139 26.1053 33.543C26.1053 34.947 27.1133 35.955 28.5893 35.955C29.3363 35.955 29.9933 35.685 30.4163 35.181L30.0563 34.767C29.6963 35.181 29.1833 35.388 28.6073 35.388C27.5723 35.388 26.8163 34.731 26.7443 33.741H30.7043C30.7043 33.669 30.7133 33.597 30.7133 33.543ZM28.4183 31.689C29.3453 31.689 30.0203 32.337 30.1013 33.264H26.7443C26.8253 32.337 27.5003 31.689 28.4183 31.689ZM32.6259 32.103V31.176H32.0139V35.91H32.6529V33.498C32.6529 32.382 33.2559 31.752 34.2459 31.752C34.2909 31.752 34.3449 31.761 34.3989 31.761V31.14C33.5259 31.14 32.9229 31.473 32.6259 32.103Z" fill="#CAE063"/>
<path d="M35.9 5.92701L19.811 0.981013C18.9312 0.711488 17.9908 0.711488 17.111 0.981013L1.01897 5.92701C0.727362 6.00219 0.469013 6.17217 0.284556 6.41022C0.1001 6.64826 0 6.94087 0 7.24201C0 7.54316 0.1001 7.83576 0.284556 8.07381C0.469013 8.31185 0.727362 8.48183 1.01897 8.55701L3.82497 9.41901C3.19517 10.1844 2.83277 11.1346 2.79297 12.125C2.52056 12.2698 2.29046 12.483 2.12524 12.7435C1.96003 13.004 1.86536 13.3031 1.85054 13.6112C1.83572 13.9194 1.90124 14.2261 2.04069 14.5013C2.18014 14.7765 2.38872 15.0107 2.64597 15.181L1.17297 21.811C1.14305 21.9458 1.14376 22.0857 1.17506 22.2202C1.20635 22.3547 1.26744 22.4805 1.3538 22.5882C1.44017 22.696 1.54962 22.783 1.67409 22.8429C1.79856 22.9027 1.93487 22.9339 2.07297 22.934H5.30997C5.44808 22.9339 5.58439 22.9027 5.70886 22.8429C5.83332 22.783 5.94278 22.696 6.02914 22.5882C6.11551 22.4805 6.17659 22.3547 6.20789 22.2202C6.23919 22.0857 6.2399 21.9458 6.20997 21.811L4.73897 15.181C4.99338 15.0139 5.20058 14.7843 5.34069 14.5141C5.48079 14.2438 5.5491 13.9422 5.53906 13.638C5.52902 13.3338 5.44097 13.0372 5.28335 12.7768C5.12574 12.5165 4.90385 12.301 4.63897 12.151C4.66013 11.7296 4.77903 11.3188 4.98625 10.9512C5.19347 10.5836 5.48335 10.2693 5.83297 10.033L17.116 13.5C17.9958 13.7692 18.9361 13.7692 19.816 13.5L35.9 8.55801C36.192 8.48318 36.4509 8.31328 36.6357 8.0751C36.8206 7.83692 36.9209 7.544 36.9209 7.24251C36.9209 6.94102 36.8206 6.6481 36.6357 6.40992C36.4509 6.17175 36.192 6.00185 35.9 5.92701ZM20.349 15.267C19.1159 15.6448 17.798 15.6448 16.565 15.267L8.19997 12.696L7.38197 19.242C7.38197 21.281 12.341 22.934 18.459 22.934C24.577 22.934 29.538 21.281 29.538 19.242L28.72 12.696L20.353 15.267H20.349Z" fill="#CAE063"/>
</svg>
