<svg width="60" height="38" viewBox="0 0 60 38" fill="none" xmlns="http://www.w3.org/2000/svg">
<path d="M3.61201 35.964C5.22301 35.964 5.96101 35.172 5.96101 34.245C5.96101 31.95 2.08201 32.994 2.08201 31.266C2.08201 30.636 2.59501 30.123 3.74701 30.123C4.30501 30.123 4.93501 30.294 5.47501 30.645L5.70001 30.114C5.19601 29.763 4.45801 29.556 3.74701 29.556C2.14501 29.556 1.42501 30.357 1.42501 31.284C1.42501 33.615 5.30401 32.553 5.30401 34.281C5.30401 34.902 4.79101 35.397 3.61201 35.397C2.78401 35.397 1.98301 35.073 1.53301 34.632L1.27201 35.145C1.74001 35.631 2.66701 35.964 3.61201 35.964ZM9.54512 35.163C9.36512 35.325 9.10412 35.406 8.84312 35.406C8.31212 35.406 8.02412 35.1 8.02412 34.542V31.716H9.46412V31.176H8.02412V30.141H7.38512V31.176H6.53912V31.716H7.38512V34.578C7.38512 35.451 7.88012 35.955 8.77112 35.955C9.14012 35.955 9.51812 35.847 9.77012 35.622L9.54512 35.163ZM14.5604 31.176V33.66C14.5604 34.74 13.9394 35.379 12.9494 35.379C12.0494 35.379 11.5274 34.866 11.5274 33.858V31.176H10.8884V33.921C10.8884 35.28 11.6804 35.955 12.8864 35.955C13.6424 35.955 14.2544 35.622 14.5874 35.046V35.91H15.1994V31.176H14.5604ZM20.67 29.232V32.076C20.274 31.464 19.626 31.14 18.87 31.14C17.52 31.14 16.512 32.112 16.512 33.543C16.512 34.974 17.52 35.955 18.87 35.955C19.653 35.955 20.31 35.613 20.697 34.974V35.91H21.309V29.232H20.67ZM18.924 35.388C17.916 35.388 17.16 34.65 17.16 33.543C17.16 32.436 17.916 31.698 18.924 31.698C19.923 31.698 20.679 32.436 20.679 33.543C20.679 34.65 19.923 35.388 18.924 35.388ZM26.4366 31.176L24.6546 35.199L22.8726 31.176H22.2066L24.3216 35.901L24.1146 36.36C23.8446 36.954 23.5566 37.152 23.1336 37.152C22.7916 37.152 22.5036 37.026 22.2696 36.792L21.9726 37.269C22.2606 37.557 22.6836 37.701 23.1246 37.701C23.7996 37.701 24.3036 37.404 24.6996 36.477L27.0666 31.176H26.4366ZM34.426 32.661C35.002 32.427 35.389 31.95 35.389 31.23C35.389 30.204 34.579 29.61 33.175 29.61H30.457V35.91H33.355C34.93 35.91 35.722 35.298 35.722 34.227C35.722 33.372 35.236 32.841 34.426 32.661ZM33.13 30.159C34.138 30.159 34.723 30.546 34.723 31.302C34.723 32.058 34.138 32.445 33.13 32.445H31.123V30.159H33.13ZM33.346 35.361H31.123V32.994H33.346C34.453 32.994 35.056 33.354 35.056 34.173C35.056 35.001 34.453 35.361 33.346 35.361ZM40.7342 31.176V33.66C40.7342 34.74 40.1132 35.379 39.1232 35.379C38.2232 35.379 37.7012 34.866 37.7012 33.858V31.176H37.0622V33.921C37.0622 35.28 37.8542 35.955 39.0602 35.955C39.8162 35.955 40.4282 35.622 40.7612 35.046V35.91H41.3732V31.176H40.7342ZM46.8439 29.232V32.076C46.4479 31.464 45.7999 31.14 45.0439 31.14C43.6939 31.14 42.6859 32.112 42.6859 33.543C42.6859 34.974 43.6939 35.955 45.0439 35.955C45.8269 35.955 46.4839 35.613 46.8709 34.974V35.91H47.4829V29.232H46.8439ZM45.0979 35.388C44.0899 35.388 43.3339 34.65 43.3339 33.543C43.3339 32.436 44.0899 31.698 45.0979 31.698C46.0969 31.698 46.8529 32.436 46.8529 33.543C46.8529 34.65 46.0969 35.388 45.0979 35.388ZM52.9435 29.232V32.076C52.5475 31.464 51.8995 31.14 51.1435 31.14C49.7935 31.14 48.7855 32.112 48.7855 33.543C48.7855 34.974 49.7935 35.955 51.1435 35.955C51.9265 35.955 52.5835 35.613 52.9705 34.974V35.91H53.5825V29.232H52.9435ZM51.1975 35.388C50.1895 35.388 49.4335 34.65 49.4335 33.543C49.4335 32.436 50.1895 31.698 51.1975 31.698C52.1965 31.698 52.9525 32.436 52.9525 33.543C52.9525 34.65 52.1965 35.388 51.1975 35.388ZM58.7101 31.176L56.9281 35.199L55.1461 31.176H54.4801L56.5951 35.901L56.3881 36.36C56.1181 36.954 55.8301 37.152 55.4071 37.152C55.0651 37.152 54.7771 37.026 54.5431 36.792L54.2461 37.269C54.5341 37.557 54.9571 37.701 55.3981 37.701C56.0731 37.701 56.5771 37.404 56.9731 36.477L59.3401 31.176H58.7101Z" fill="#CAE063"/>
<path d="M26.936 3.46899H31.028L29.146 5.77899L26.936 3.46899Z" fill="#CAE063"/>
<path d="M32.468 2.42299L32.158 2.08998C31.9108 1.82429 31.6115 1.61239 31.2787 1.46752C30.946 1.32265 30.5869 1.24792 30.224 1.24799H26.557V1.86098C26.557 2.07887 26.6 2.2946 26.6837 2.4958C26.7673 2.69699 26.8898 2.87969 27.0443 3.03338C27.1987 3.18707 27.382 3.30873 27.5836 3.39138C27.7852 3.47403 28.0011 3.51604 28.219 3.51498L31.292 3.50898L32.468 2.42299Z" fill="#CAE063"/>
<path d="M28.316 18.671C29.0873 19.2763 30.0588 19.5681 31.036 19.488L31.184 19.476L33.747 22.039L40.005 16.639L36.455 13.105L28.316 18.671Z" fill="#CAE063"/>
<path d="M21.935 13.405L17.013 18.325L24.951 22.043L29.139 17.843C30.8611 17.7797 32.4954 17.0665 33.713 15.847L38.246 11.314C38.3662 11.1938 38.4615 11.0512 38.5265 10.8942C38.5915 10.7372 38.625 10.5689 38.625 10.399C38.625 10.229 38.5915 10.0608 38.5265 9.90378C38.4615 9.74678 38.3662 9.60413 38.246 9.48397C38.1258 9.36381 37.9832 9.2685 37.8262 9.20347C37.6692 9.13844 37.5009 9.10497 37.331 9.10497C37.1611 9.10497 36.9928 9.13844 36.8358 9.20347C36.6788 9.2685 36.5362 9.36381 36.416 9.48397L35.842 10.058L37.042 8.85798C37.1622 8.73782 37.2575 8.59516 37.3225 8.43817C37.3875 8.28117 37.421 8.11291 37.421 7.94297C37.421 7.77304 37.3875 7.60478 37.3225 7.44778C37.2575 7.29078 37.1622 7.14813 37.042 7.02797C36.9218 6.90781 36.7792 6.8125 36.6222 6.74747C36.4652 6.68244 36.2969 6.64897 36.127 6.64897C35.9571 6.64897 35.7888 6.68244 35.6318 6.74747C35.4748 6.8125 35.3322 6.90781 35.212 7.02797L34.013 8.22997L35.673 6.56997C35.7932 6.44981 35.8885 6.30717 35.9535 6.15017C36.0185 5.99317 36.052 5.8249 36.052 5.65497C36.052 5.48504 36.0185 5.31677 35.9535 5.15978C35.8885 5.00278 35.7932 4.86013 35.673 4.73997C35.5528 4.61981 35.4102 4.5245 35.2532 4.45947C35.0962 4.39443 34.9279 4.36097 34.758 4.36097C34.5881 4.36097 34.4198 4.39443 34.2628 4.45947C34.1058 4.5245 33.9632 4.61981 33.843 4.73997L32.184 6.39898L34.301 4.28197C34.4212 4.16182 34.5165 4.01916 34.5815 3.86217C34.6465 3.70517 34.68 3.53691 34.68 3.36697C34.68 3.19704 34.6465 3.02878 34.5815 2.87178C34.5165 2.71478 34.4212 2.57213 34.301 2.45197C34.1808 2.33181 34.0382 2.2365 33.8812 2.17147C33.7242 2.10644 33.5559 2.07297 33.386 2.07297C33.2161 2.07297 33.0478 2.10644 32.8908 2.17147C32.7338 2.2365 32.5912 2.33181 32.471 2.45197L29.145 5.77797" fill="#CAE063"/>
<path d="M23.764 11.575L22.501 10.312C22.3808 10.1918 22.2382 10.0965 22.0812 10.0315C21.9242 9.96645 21.7559 9.93298 21.586 9.93298C21.4161 9.93298 21.2478 9.96645 21.0908 10.0315C20.9338 10.0965 20.7912 10.1918 20.671 10.312C20.4286 10.5546 20.2925 10.8835 20.2925 11.2265C20.2925 11.5694 20.4286 11.8984 20.671 12.141L21.934 13.404C22.0542 13.5242 22.1968 13.6195 22.3538 13.6845C22.5108 13.7495 22.6791 13.783 22.849 13.783C23.0189 13.783 23.1872 13.7495 23.3442 13.6845C23.5012 13.6195 23.6438 13.5242 23.764 13.404C24.0064 13.1614 24.1425 12.8324 24.1425 12.4895C24.1425 12.1465 24.0064 11.8176 23.764 11.575Z" fill="#CAE063"/>
<path d="M25.594 9.746L23.704 7.856C23.5838 7.73584 23.4412 7.64052 23.2842 7.57549C23.1272 7.51045 22.9589 7.47699 22.789 7.47699C22.6191 7.47699 22.4508 7.51045 22.2938 7.57549C22.1368 7.64052 21.9942 7.73584 21.874 7.856C21.6316 8.09863 21.4955 8.42755 21.4955 8.77049C21.4955 9.11344 21.6316 9.44237 21.874 9.685L23.764 11.575C23.8842 11.6952 24.0268 11.7905 24.1838 11.8555C24.3408 11.9205 24.5091 11.954 24.679 11.954C24.8489 11.954 25.0172 11.9205 25.1742 11.8555C25.3312 11.7905 25.4738 11.6952 25.594 11.575C25.8364 11.3324 25.9725 11.0034 25.9725 10.6605C25.9725 10.3175 25.8364 9.98863 25.594 9.746Z" fill="#CAE063"/>
<path d="M27.423 7.91599L25.075 5.56799C24.8324 5.32562 24.5035 5.18948 24.1605 5.18948C23.8176 5.18948 23.4886 5.32562 23.246 5.56799C23.0036 5.81062 22.8675 6.13954 22.8675 6.48249C22.8675 6.82544 23.0036 7.15436 23.246 7.39699L25.594 9.745C25.7142 9.86516 25.8568 9.96047 26.0138 10.0255C26.1708 10.0905 26.3391 10.124 26.509 10.124C26.6789 10.124 26.8472 10.0905 27.0042 10.0255C27.1612 9.96047 27.3038 9.86516 27.424 9.745C27.6662 9.50223 27.8022 9.17323 27.802 8.83028C27.8018 8.48734 27.6655 8.15849 27.423 7.91599Z" fill="#CAE063"/>
<path d="M29.253 6.08598L26.448 3.28098C26.2054 3.03861 25.8764 2.90247 25.5335 2.90247C25.1906 2.90247 24.8616 3.03861 24.619 3.28098C24.4988 3.40113 24.4035 3.54378 24.3385 3.70078C24.2735 3.85777 24.24 4.02604 24.24 4.19597C24.24 4.3659 24.2735 4.53417 24.3385 4.69117C24.4035 4.84817 24.4988 4.99081 24.619 5.11097L27.424 7.91597C27.6666 8.15834 27.9955 8.29448 28.3385 8.29448C28.6814 8.29448 29.0104 8.15834 29.253 7.91597C29.3732 7.79581 29.4685 7.65317 29.5335 7.49617C29.5985 7.33917 29.632 7.1709 29.632 7.00097C29.632 6.83104 29.5985 6.66277 29.5335 6.50578C29.4685 6.34878 29.3732 6.20613 29.253 6.08598Z" fill="#CAE063"/>
<path d="M40.331 16.311L39.191 15.18C39.1474 15.1368 39.0957 15.1026 39.0389 15.0794C38.9821 15.0561 38.9213 15.0443 38.8599 15.0446C38.7985 15.0449 38.7378 15.0573 38.6812 15.081C38.6246 15.1047 38.5732 15.1394 38.53 15.183C38.4868 15.2266 38.4526 15.2783 38.4294 15.3351C38.4062 15.3919 38.3943 15.4528 38.3946 15.5141C38.3949 15.5755 38.4073 15.6362 38.431 15.6928C38.4548 15.7494 38.4894 15.8008 38.533 15.844L39.673 16.975C39.7611 17.0623 39.8802 17.1109 40.0041 17.1104C40.1281 17.1098 40.2468 17.06 40.334 16.972C40.4213 16.8839 40.47 16.7648 40.4694 16.6409C40.4688 16.5169 40.4191 16.3983 40.331 16.311Z" fill="white"/>
<path d="M37.367 14.022C37.3019 14.0874 37.2576 14.1706 37.2398 14.2611C37.222 14.3517 37.2313 14.4454 37.2668 14.5306C37.3022 14.6158 37.362 14.6887 37.4388 14.7399C37.5155 14.7911 37.6057 14.8184 37.698 14.8184C37.7903 14.8184 37.8805 14.7911 37.9572 14.7399C38.034 14.6887 38.0938 14.6158 38.1292 14.5306C38.1647 14.4454 38.174 14.3517 38.1562 14.2611C38.1383 14.1706 38.0941 14.0874 38.029 14.022C37.9855 13.9784 37.9339 13.9439 37.8771 13.9204C37.8202 13.8969 37.7593 13.8848 37.6978 13.8849C37.6363 13.885 37.5754 13.8973 37.5186 13.921C37.4618 13.9447 37.4103 13.9793 37.367 14.023V14.022Z" fill="white"/>
<path d="M31.51 19.146C31.462 19.0981 31.4041 19.0612 31.3404 19.0379C31.2766 19.0146 31.2086 19.0054 31.141 19.011L30.993 19.023C30.3153 19.0792 29.6362 18.9316 29.043 18.599L29.343 18.299C31.1163 18.1911 32.7884 17.4368 34.043 16.179L38.576 11.646C38.7983 11.4238 38.9571 11.1462 39.0358 10.842C39.1145 10.5377 39.1103 10.2179 39.0237 9.91583C38.937 9.61374 38.7711 9.34036 38.5431 9.12409C38.315 8.90782 38.0333 8.75655 37.727 8.686C37.8409 8.44051 37.8967 8.17208 37.8901 7.90154C37.8835 7.631 37.8146 7.36562 37.6889 7.12598C37.5632 6.88633 37.384 6.67887 37.1651 6.51967C36.9463 6.36048 36.6937 6.25383 36.427 6.208C36.5072 5.96781 36.5345 5.71313 36.5072 5.46139C36.4798 5.20965 36.3984 4.96679 36.2685 4.74943C36.1386 4.53207 35.9633 4.34533 35.7545 4.20201C35.5458 4.05868 35.3085 3.96214 35.059 3.919C35.1689 3.58409 35.1758 3.22391 35.0789 2.88502C34.982 2.54613 34.7856 2.2441 34.5152 2.01797C34.2448 1.79184 33.9129 1.652 33.5622 1.61653C33.2115 1.58106 32.8582 1.65159 32.548 1.819L32.503 1.771C32.2117 1.45877 31.8594 1.2097 31.4679 1.03923C31.0764 0.868762 30.654 0.780529 30.227 0.779999H26.555C26.4311 0.779999 26.3124 0.829199 26.2248 0.916779C26.1372 1.00436 26.088 1.12314 26.088 1.247V1.86C26.0878 2.10116 26.1288 2.34058 26.209 2.568C25.8973 2.43858 25.555 2.40146 25.2228 2.46104C24.8906 2.52063 24.5825 2.67442 24.3353 2.9041C24.088 3.13379 23.9119 3.42969 23.828 3.75659C23.7441 4.08349 23.7559 4.42762 23.862 4.748C23.6124 4.79091 23.375 4.88715 23.166 5.03015C22.957 5.17315 22.7813 5.35955 22.6509 5.57663C22.5205 5.79371 22.4384 6.03636 22.4103 6.28804C22.3822 6.53971 22.4087 6.79449 22.488 7.035C22.2215 7.08073 21.969 7.18724 21.7503 7.34627C21.5315 7.5053 21.3524 7.71257 21.2266 7.95201C21.1009 8.19146 21.032 8.45664 21.0253 8.72699C21.0186 8.99735 21.0743 9.26562 21.188 9.511C20.8817 9.58159 20.5998 9.7329 20.3717 9.94922C20.1436 10.1655 19.9776 10.439 19.8908 10.7411C19.8041 11.0433 19.7998 11.3632 19.8784 11.6675C19.9571 11.9719 20.1158 12.2497 20.338 12.472L21.27 13.404L16.684 17.995C16.5963 18.0827 16.5471 18.2015 16.5471 18.3255C16.5471 18.4495 16.5963 18.5683 16.684 18.656C16.7717 18.7437 16.8905 18.7929 17.0145 18.7929C17.1385 18.7929 17.2573 18.7437 17.345 18.656L21.979 14.019C22.2519 14.1743 22.5613 14.2537 22.8753 14.2491C23.1892 14.2445 23.4962 14.156 23.7644 13.9928C24.0326 13.8295 24.2523 13.5975 24.4006 13.3208C24.5489 13.0441 24.6205 12.7327 24.608 12.419H24.679C24.9102 12.4193 25.1393 12.3739 25.353 12.2856C25.5667 12.1972 25.7609 12.0676 25.9244 11.9042C26.088 11.7407 26.2177 11.5466 26.3062 11.3329C26.3947 11.1192 26.4401 10.8902 26.44 10.659C26.44 10.635 26.44 10.612 26.44 10.588H26.51C26.7412 10.5883 26.9703 10.5429 27.184 10.4546C27.3977 10.3662 27.5919 10.2366 27.7554 10.0732C27.919 9.90968 28.0487 9.71557 28.1372 9.50191C28.2257 9.28825 28.2711 9.05925 28.271 8.828C28.271 8.804 28.271 8.781 28.271 8.757H28.341C28.6744 8.7572 29.001 8.66269 29.2828 8.48446C29.5646 8.30623 29.79 8.05163 29.9327 7.75029C30.0754 7.44895 30.1296 7.11327 30.0889 6.78233C30.0483 6.4514 29.9144 6.13882 29.703 5.881L32.803 2.781C32.8798 2.70424 32.9709 2.64335 33.0712 2.60181C33.1715 2.56027 33.279 2.53889 33.3875 2.53889C33.4961 2.53889 33.6035 2.56027 33.7038 2.60181C33.8041 2.64335 33.8952 2.70424 33.972 2.781C34.0488 2.85776 34.1096 2.94888 34.1512 3.04917C34.1927 3.14946 34.2141 3.25695 34.2141 3.3655C34.2141 3.47405 34.1927 3.58154 34.1512 3.68183C34.1096 3.78212 34.0488 3.87324 33.972 3.95L33.515 4.407L31.854 6.069C31.8106 6.1124 31.7762 6.16393 31.7527 6.22063C31.7292 6.27734 31.7171 6.33812 31.7171 6.3995C31.7171 6.46088 31.7292 6.52166 31.7527 6.57836C31.7762 6.63507 31.8106 6.6866 31.854 6.73C31.8974 6.7734 31.9489 6.80783 32.0056 6.83132C32.0623 6.85481 32.1231 6.8669 32.1845 6.8669C32.2459 6.8669 32.3067 6.85481 32.3634 6.83132C32.4201 6.80783 32.4716 6.7734 32.515 6.73L34.174 5.071C34.2508 4.99424 34.3419 4.93335 34.4422 4.89181C34.5425 4.85027 34.65 4.82889 34.7585 4.82889C34.8671 4.82889 34.9745 4.85027 35.0748 4.89181C35.1751 4.93335 35.2662 4.99424 35.343 5.071C35.4198 5.14776 35.4806 5.23888 35.5222 5.33917C35.5637 5.43946 35.5851 5.54695 35.5851 5.6555C35.5851 5.76405 35.5637 5.87154 35.5222 5.97183C35.4806 6.07212 35.4198 6.16324 35.343 6.24L34.886 6.697L33.686 7.897C33.6426 7.9404 33.6082 7.99193 33.5847 8.04863C33.5612 8.10534 33.5491 8.16612 33.5491 8.2275C33.5491 8.28888 33.5612 8.34966 33.5847 8.40636C33.6082 8.46307 33.6426 8.5146 33.686 8.558C33.7294 8.6014 33.7809 8.63583 33.8376 8.65932C33.8943 8.68281 33.9551 8.6949 34.0165 8.6949C34.0779 8.6949 34.1387 8.68281 34.1954 8.65932C34.2521 8.63583 34.3036 8.6014 34.347 8.558L35.547 7.358C35.6238 7.28124 35.7149 7.22035 35.8152 7.17881C35.9155 7.13727 36.023 7.11589 36.1315 7.11589C36.2401 7.11589 36.3475 7.13727 36.4478 7.17881C36.5481 7.22035 36.6392 7.28124 36.716 7.358C36.7928 7.43476 36.8536 7.52588 36.8952 7.62617C36.9367 7.72646 36.9581 7.83395 36.9581 7.9425C36.9581 8.05105 36.9367 8.15854 36.8952 8.25883C36.8536 8.35912 36.7928 8.45024 36.716 8.527L36.088 9.155L35.514 9.729C35.4706 9.7724 35.4362 9.82393 35.4127 9.88063C35.3892 9.93734 35.3771 9.99812 35.3771 10.0595C35.3771 10.1209 35.3892 10.1817 35.4127 10.2384C35.4362 10.2951 35.4706 10.3466 35.514 10.39C35.5574 10.4334 35.6089 10.4678 35.6656 10.4913C35.7223 10.5148 35.7831 10.5269 35.8445 10.5269C35.9059 10.5269 35.9667 10.5148 36.0234 10.4913C36.0801 10.4678 36.1316 10.4334 36.175 10.39L36.748 9.819C36.903 9.66411 37.1132 9.57715 37.3324 9.57725C37.5515 9.57734 37.7616 9.66448 37.9165 9.8195C38.0714 9.97452 38.1583 10.1847 38.1583 10.4039C38.1582 10.623 38.071 10.8331 37.916 10.988L33.383 15.519C32.2496 16.6553 30.7269 17.3186 29.123 17.375C29.0048 17.3792 28.8925 17.4282 28.809 17.512L24.621 21.712C24.5335 21.7998 24.4844 21.9187 24.4846 22.0427C24.4848 22.1667 24.5342 22.2855 24.622 22.373C24.7098 22.4605 24.8287 22.5096 24.9527 22.5094C25.0767 22.5092 25.1955 22.4598 25.283 22.372L28.363 19.28C29.1468 19.7833 30.0716 20.0213 31.001 19.959L33.412 22.37C33.4997 22.4577 33.6185 22.5069 33.7425 22.5069C33.8665 22.5069 33.9853 22.4577 34.073 22.37C34.1607 22.2823 34.2099 22.1635 34.2099 22.0395C34.2099 21.9155 34.1607 21.7967 34.073 21.709L31.51 19.146ZM27.022 1.719H30.222C30.5205 1.71949 30.8157 1.78124 31.0894 1.90045C31.3631 2.01965 31.6093 2.19376 31.813 2.412L31.832 2.432L29.048 5.219L27.764 3.935C27.9109 3.96666 28.0607 3.98275 28.211 3.983H28.221L29.503 3.977C29.627 3.977 29.7459 3.92774 29.8336 3.84007C29.9212 3.7524 29.9705 3.63349 29.9705 3.5095C29.9705 3.38551 29.9212 3.2666 29.8336 3.17893C29.7459 3.09125 29.627 3.042 29.503 3.042L28.221 3.048H28.215C27.9002 3.048 27.5983 2.92294 27.3757 2.70033C27.1531 2.47773 27.028 2.17581 27.028 1.861V1.719H27.022ZM23.434 13.075C23.3573 13.1518 23.2662 13.2128 23.1659 13.2544C23.0656 13.296 22.9581 13.3174 22.8495 13.3174C22.7409 13.3174 22.6334 13.296 22.5331 13.2544C22.4328 13.2128 22.3417 13.1518 22.265 13.075L21.002 11.812C20.9252 11.7352 20.8644 11.6441 20.8228 11.5438C20.7813 11.4435 20.7599 11.3361 20.7599 11.2275C20.7599 11.1189 20.7813 11.0115 20.8228 10.9112C20.8644 10.8109 20.9252 10.7198 21.002 10.643C21.0788 10.5662 21.1699 10.5054 21.2702 10.4638C21.3705 10.4223 21.4779 10.4009 21.5865 10.4009C21.6951 10.4009 21.8025 10.4223 21.9028 10.4638C22.0031 10.5054 22.0942 10.5662 22.171 10.643L23.434 11.906C23.5889 12.0611 23.6759 12.2713 23.6759 12.4905C23.6759 12.7097 23.5889 12.9199 23.434 13.075ZM25.506 10.661C25.5062 10.8246 25.4578 10.9845 25.367 11.1205C25.2762 11.2565 25.147 11.3625 24.9959 11.4251C24.8448 11.4876 24.6785 11.5039 24.5181 11.4718C24.3577 11.4398 24.2105 11.3608 24.095 11.245L22.832 9.982L22.204 9.354C22.049 9.19898 21.9619 8.98873 21.9619 8.7695C21.9619 8.55027 22.049 8.34002 22.204 8.185C22.359 8.02998 22.5693 7.94289 22.7885 7.94289C23.0077 7.94289 23.218 8.02998 23.373 8.185L25.263 10.075C25.3402 10.1518 25.4013 10.2431 25.4428 10.3437C25.4844 10.4443 25.5055 10.5522 25.505 10.661H25.506ZM27.335 8.831C27.3352 8.99455 27.2868 9.15447 27.196 9.2905C27.1052 9.42652 26.976 9.53252 26.8249 9.59507C26.6738 9.65762 26.5075 9.67389 26.3471 9.64184C26.1867 9.60978 26.0395 9.53083 25.924 9.415L23.576 7.068C23.4992 6.99104 23.4384 6.89972 23.3969 6.79925C23.3555 6.69878 23.3342 6.59113 23.3343 6.48244C23.3345 6.37375 23.356 6.26615 23.3977 6.16578C23.4395 6.06542 23.5005 5.97426 23.5775 5.8975C23.6545 5.82074 23.7458 5.75989 23.8462 5.71843C23.9467 5.67696 24.0544 5.65569 24.1631 5.65583C24.2718 5.65597 24.3794 5.67752 24.4797 5.71924C24.5801 5.76096 24.6712 5.82204 24.748 5.899L25.818 6.969L27.096 8.247C27.1724 8.32377 27.2328 8.41489 27.2738 8.51512C27.3149 8.61535 27.3356 8.7227 27.335 8.831ZM28.922 7.586C28.7669 7.74092 28.5567 7.82794 28.3375 7.82794C28.1183 7.82794 27.9081 7.74092 27.753 7.586L25.406 5.238L24.948 4.781C24.793 4.62598 24.7059 4.41573 24.7059 4.1965C24.7059 3.97727 24.793 3.76702 24.948 3.612C25.103 3.45698 25.3133 3.36989 25.5325 3.36989C25.7517 3.36989 25.962 3.45698 26.117 3.612L28.922 6.419C29.0769 6.57407 29.1639 6.7843 29.1639 7.0035C29.1639 7.2227 29.0769 7.43293 28.922 7.588V7.586Z" fill="white"/>
</svg>
