<svg width="49" height="39" viewBox="0 0 49 39" fill="none" xmlns="http://www.w3.org/2000/svg">
<path d="M24.013 0.781006C19.863 0.781006 16.5 3.88101 16.5 7.70401C16.5 14.627 24.013 22.935 24.013 22.935C24.013 22.935 31.526 14.627 31.526 7.70401C31.526 3.88101 28.162 0.781006 24.013 0.781006ZM24.013 11.944C22.8413 11.9895 21.6994 11.5689 20.8372 10.7742C19.975 9.97947 19.4629 8.8755 19.413 7.70401C19.4629 6.53251 19.975 5.42854 20.8372 4.63385C21.6994 3.83915 22.8413 3.4185 24.013 3.46401C25.1847 3.4185 26.3266 3.83915 27.1888 4.63385C28.051 5.42854 28.5631 6.53251 28.613 7.70401C28.5631 8.8755 28.051 9.97947 27.1888 10.7742C26.3266 11.5689 25.1847 11.9895 24.013 11.944ZM21.102 7.70401C21.1324 6.96226 21.4561 6.26295 22.002 5.75982C22.5479 5.2567 23.2712 4.99095 24.013 5.02101C24.7549 4.99068 25.4785 5.25631 26.0246 5.75946C26.5707 6.26261 26.8946 6.96208 26.925 7.70401C26.8946 8.44575 26.5709 9.14507 26.025 9.64819C25.4791 10.1513 24.7558 10.4171 24.014 10.387C23.2721 10.4173 22.5485 10.1517 22.0024 9.64855C21.4563 9.1454 21.1324 8.44593 21.102 7.70401Z" fill="#231F20"/>
<path d="M2.841 36.364C4.452 36.364 5.19 35.572 5.19 34.645C5.19 32.35 1.311 33.394 1.311 31.666C1.311 31.036 1.824 30.523 2.976 30.523C3.534 30.523 4.164 30.694 4.704 31.045L4.929 30.514C4.425 30.163 3.687 29.956 2.976 29.956C1.374 29.956 0.654003 30.757 0.654003 31.684C0.654003 34.015 4.533 32.953 4.533 34.681C4.533 35.302 4.02 35.797 2.841 35.797C2.013 35.797 1.212 35.473 0.762003 35.032L0.501003 35.545C0.969003 36.031 1.896 36.364 2.841 36.364ZM8.77411 35.563C8.59411 35.725 8.33311 35.806 8.07211 35.806C7.54111 35.806 7.25311 35.5 7.25311 34.942V32.116H8.69311V31.576H7.25311V30.541H6.61411V31.576H5.76811V32.116H6.61411V34.978C6.61411 35.851 7.10911 36.355 8.00011 36.355C8.36911 36.355 8.74711 36.247 8.99911 36.022L8.77411 35.563ZM11.8184 31.54C11.0714 31.54 10.3694 31.774 9.89236 32.179L10.1804 32.656C10.5674 32.314 11.1434 32.098 11.7554 32.098C12.6374 32.098 13.0964 32.539 13.0964 33.349V33.637H11.5934C10.2344 33.637 9.76636 34.249 9.76636 34.978C9.76636 35.797 10.4234 36.355 11.4944 36.355C12.2774 36.355 12.8354 36.058 13.1234 35.572V36.31H13.7354V33.376C13.7354 32.152 13.0424 31.54 11.8184 31.54ZM11.5934 35.851C10.8374 35.851 10.3964 35.509 10.3964 34.96C10.3964 34.474 10.6934 34.114 11.6114 34.114H13.0964V34.888C12.8444 35.509 12.3134 35.851 11.5934 35.851ZM18.7311 31.576L16.9491 35.599L15.1671 31.576H14.5011L16.6161 36.301L16.4091 36.76C16.1391 37.354 15.8511 37.552 15.4281 37.552C15.0861 37.552 14.7981 37.426 14.5641 37.192L14.2671 37.669C14.5551 37.957 14.9781 38.101 15.4191 38.101C16.0941 38.101 16.5981 37.804 16.9941 36.877L19.3611 31.576H18.7311ZM24.4885 36.364C26.0995 36.364 26.8375 35.572 26.8375 34.645C26.8375 32.35 22.9585 33.394 22.9585 31.666C22.9585 31.036 23.4715 30.523 24.6235 30.523C25.1815 30.523 25.8115 30.694 26.3515 31.045L26.5765 30.514C26.0725 30.163 25.3345 29.956 24.6235 29.956C23.0215 29.956 22.3015 30.757 22.3015 31.684C22.3015 34.015 26.1805 32.953 26.1805 34.681C26.1805 35.302 25.6675 35.797 24.4885 35.797C23.6605 35.797 22.8595 35.473 22.4095 35.032L22.1485 35.545C22.6165 36.031 23.5435 36.364 24.4885 36.364ZM30.4216 35.563C30.2416 35.725 29.9806 35.806 29.7196 35.806C29.1886 35.806 28.9006 35.5 28.9006 34.942V32.116H30.3406V31.576H28.9006V30.541H28.2616V31.576H27.4156V32.116H28.2616V34.978C28.2616 35.851 28.7566 36.355 29.6476 36.355C30.0166 36.355 30.3946 36.247 30.6466 36.022L30.4216 35.563ZM35.4368 31.576V34.06C35.4368 35.14 34.8158 35.779 33.8258 35.779C32.9258 35.779 32.4038 35.266 32.4038 34.258V31.576H31.7648V34.321C31.7648 35.68 32.5568 36.355 33.7628 36.355C34.5188 36.355 35.1308 36.022 35.4638 35.446V36.31H36.0758V31.576H35.4368ZM41.5465 29.632V32.476C41.1505 31.864 40.5025 31.54 39.7465 31.54C38.3965 31.54 37.3885 32.512 37.3885 33.943C37.3885 35.374 38.3965 36.355 39.7465 36.355C40.5295 36.355 41.1865 36.013 41.5735 35.374V36.31H42.1855V29.632H41.5465ZM39.8005 35.788C38.7925 35.788 38.0365 35.05 38.0365 33.943C38.0365 32.836 38.7925 32.098 39.8005 32.098C40.7995 32.098 41.5555 32.836 41.5555 33.943C41.5555 35.05 40.7995 35.788 39.8005 35.788ZM47.3131 31.576L45.5311 35.599L43.7491 31.576H43.0831L45.1981 36.301L44.9911 36.76C44.7211 37.354 44.4331 37.552 44.0101 37.552C43.6681 37.552 43.3801 37.426 43.1461 37.192L42.8491 37.669C43.1371 37.957 43.5601 38.101 44.0011 38.101C44.6761 38.101 45.1801 37.804 45.5761 36.877L47.9431 31.576H47.3131Z" fill="#231F20"/>
</svg>
