<svg width="60" height="38" viewBox="0 0 60 38" fill="none" xmlns="http://www.w3.org/2000/svg">
<path d="M3.36801 35.964C4.97901 35.964 5.71701 35.172 5.71701 34.245C5.71701 31.95 1.83801 32.994 1.83801 31.266C1.83801 30.636 2.35101 30.123 3.50301 30.123C4.06101 30.123 4.69101 30.294 5.23101 30.645L5.45601 30.114C4.95201 29.763 4.21401 29.556 3.50301 29.556C1.90101 29.556 1.18101 30.357 1.18101 31.284C1.18101 33.615 5.06001 32.553 5.06001 34.281C5.06001 34.902 4.54701 35.397 3.36801 35.397C2.54001 35.397 1.73901 35.073 1.28901 34.632L1.02801 35.145C1.49601 35.631 2.42301 35.964 3.36801 35.964ZM9.30112 35.163C9.12112 35.325 8.86012 35.406 8.59912 35.406C8.06812 35.406 7.78012 35.1 7.78012 34.542V31.716H9.22012V31.176H7.78012V30.141H7.14112V31.176H6.29512V31.716H7.14112V34.578C7.14112 35.451 7.63612 35.955 8.52712 35.955C8.89612 35.955 9.27412 35.847 9.52612 35.622L9.30112 35.163ZM14.3164 31.176V33.66C14.3164 34.74 13.6954 35.379 12.7054 35.379C11.8054 35.379 11.2834 34.866 11.2834 33.858V31.176H10.6444V33.921C10.6444 35.28 11.4364 35.955 12.6424 35.955C13.3984 35.955 14.0104 35.622 14.3434 35.046V35.91H14.9554V31.176H14.3164ZM20.426 29.232V32.076C20.03 31.464 19.382 31.14 18.626 31.14C17.276 31.14 16.268 32.112 16.268 33.543C16.268 34.974 17.276 35.955 18.626 35.955C19.409 35.955 20.066 35.613 20.453 34.974V35.91H21.065V29.232H20.426ZM18.68 35.388C17.672 35.388 16.916 34.65 16.916 33.543C16.916 32.436 17.672 31.698 18.68 31.698C19.679 31.698 20.435 32.436 20.435 33.543C20.435 34.65 19.679 35.388 18.68 35.388ZM26.1926 31.176L24.4106 35.199L22.6286 31.176H21.9626L24.0776 35.901L23.8706 36.36C23.6006 36.954 23.3126 37.152 22.8896 37.152C22.5476 37.152 22.2596 37.026 22.0256 36.792L21.7286 37.269C22.0166 37.557 22.4396 37.701 22.8806 37.701C23.5556 37.701 24.0596 37.404 24.4556 36.477L26.8226 31.176H26.1926ZM34.182 32.661C34.758 32.427 35.145 31.95 35.145 31.23C35.145 30.204 34.335 29.61 32.931 29.61H30.213V35.91H33.111C34.686 35.91 35.478 35.298 35.478 34.227C35.478 33.372 34.992 32.841 34.182 32.661ZM32.886 30.159C33.894 30.159 34.479 30.546 34.479 31.302C34.479 32.058 33.894 32.445 32.886 32.445H30.879V30.159H32.886ZM33.102 35.361H30.879V32.994H33.102C34.209 32.994 34.812 33.354 34.812 34.173C34.812 35.001 34.209 35.361 33.102 35.361ZM40.4902 31.176V33.66C40.4902 34.74 39.8692 35.379 38.8792 35.379C37.9792 35.379 37.4572 34.866 37.4572 33.858V31.176H36.8182V33.921C36.8182 35.28 37.6102 35.955 38.8162 35.955C39.5722 35.955 40.1842 35.622 40.5172 35.046V35.91H41.1292V31.176H40.4902ZM46.5999 29.232V32.076C46.2039 31.464 45.5559 31.14 44.7999 31.14C43.4499 31.14 42.4419 32.112 42.4419 33.543C42.4419 34.974 43.4499 35.955 44.7999 35.955C45.5829 35.955 46.2399 35.613 46.6269 34.974V35.91H47.2389V29.232H46.5999ZM44.8539 35.388C43.8459 35.388 43.0899 34.65 43.0899 33.543C43.0899 32.436 43.8459 31.698 44.8539 31.698C45.8529 31.698 46.6089 32.436 46.6089 33.543C46.6089 34.65 45.8529 35.388 44.8539 35.388ZM52.6995 29.232V32.076C52.3035 31.464 51.6555 31.14 50.8995 31.14C49.5495 31.14 48.5415 32.112 48.5415 33.543C48.5415 34.974 49.5495 35.955 50.8995 35.955C51.6825 35.955 52.3395 35.613 52.7265 34.974V35.91H53.3385V29.232H52.6995ZM50.9535 35.388C49.9455 35.388 49.1895 34.65 49.1895 33.543C49.1895 32.436 49.9455 31.698 50.9535 31.698C51.9525 31.698 52.7085 32.436 52.7085 33.543C52.7085 34.65 51.9525 35.388 50.9535 35.388ZM58.4661 31.176L56.6841 35.199L54.9021 31.176H54.2361L56.3511 35.901L56.1441 36.36C55.8741 36.954 55.5861 37.152 55.1631 37.152C54.8211 37.152 54.5331 37.026 54.2991 36.792L54.0021 37.269C54.2901 37.557 54.7131 37.701 55.1541 37.701C55.8291 37.701 56.3331 37.404 56.7291 36.477L59.0961 31.176H58.4661Z" fill="#231F20"/>
<path d="M25.936 3.46899H30.028L28.146 5.77899L25.936 3.46899Z" fill="#231F20"/>
<path d="M31.468 2.42299L31.158 2.08998C30.9108 1.82429 30.6115 1.61239 30.2787 1.46752C29.946 1.32265 29.5869 1.24792 29.224 1.24799H25.557V1.86098C25.557 2.07887 25.6 2.2946 25.6837 2.4958C25.7673 2.69699 25.8898 2.87969 26.0443 3.03338C26.1987 3.18707 26.382 3.30873 26.5836 3.39138C26.7852 3.47403 27.0011 3.51604 27.219 3.51498L30.292 3.50898L31.468 2.42299Z" fill="#231F20"/>
<path d="M27.316 18.671C28.0873 19.2763 29.0588 19.5681 30.036 19.488L30.184 19.476L32.747 22.039L39.005 16.639L35.455 13.105L27.316 18.671Z" fill="#231F20"/>
<path d="M20.935 13.405L16.013 18.325L23.951 22.043L28.139 17.843C29.8611 17.7797 31.4954 17.0665 32.713 15.847L37.246 11.314C37.3662 11.1938 37.4615 11.0512 37.5265 10.8942C37.5915 10.7372 37.625 10.5689 37.625 10.399C37.625 10.229 37.5915 10.0608 37.5265 9.90378C37.4615 9.74678 37.3662 9.60413 37.246 9.48397C37.1258 9.36381 36.9832 9.2685 36.8262 9.20347C36.6692 9.13844 36.5009 9.10497 36.331 9.10497C36.1611 9.10497 35.9928 9.13844 35.8358 9.20347C35.6788 9.2685 35.5362 9.36381 35.416 9.48397L34.842 10.058L36.042 8.85798C36.1622 8.73782 36.2575 8.59516 36.3225 8.43817C36.3875 8.28117 36.421 8.11291 36.421 7.94297C36.421 7.77304 36.3875 7.60478 36.3225 7.44778C36.2575 7.29078 36.1622 7.14813 36.042 7.02797C35.9218 6.90781 35.7792 6.8125 35.6222 6.74747C35.4652 6.68244 35.2969 6.64897 35.127 6.64897C34.9571 6.64897 34.7888 6.68244 34.6318 6.74747C34.4748 6.8125 34.3322 6.90781 34.212 7.02797L33.013 8.22997L34.673 6.56997C34.7932 6.44981 34.8885 6.30717 34.9535 6.15017C35.0185 5.99317 35.052 5.8249 35.052 5.65497C35.052 5.48504 35.0185 5.31677 34.9535 5.15978C34.8885 5.00278 34.7932 4.86013 34.673 4.73997C34.5528 4.61981 34.4102 4.5245 34.2532 4.45947C34.0962 4.39443 33.9279 4.36097 33.758 4.36097C33.5881 4.36097 33.4198 4.39443 33.2628 4.45947C33.1058 4.5245 32.9632 4.61981 32.843 4.73997L31.184 6.39898L33.301 4.28197C33.4212 4.16182 33.5165 4.01916 33.5815 3.86217C33.6465 3.70517 33.68 3.53691 33.68 3.36697C33.68 3.19704 33.6465 3.02878 33.5815 2.87178C33.5165 2.71478 33.4212 2.57213 33.301 2.45197C33.1808 2.33181 33.0382 2.2365 32.8812 2.17147C32.7242 2.10644 32.5559 2.07297 32.386 2.07297C32.2161 2.07297 32.0478 2.10644 31.8908 2.17147C31.7338 2.2365 31.5912 2.33181 31.471 2.45197L28.145 5.77797" fill="#231F20"/>
<path d="M22.764 11.575L21.501 10.312C21.3808 10.1918 21.2382 10.0965 21.0812 10.0315C20.9242 9.96645 20.7559 9.93298 20.586 9.93298C20.4161 9.93298 20.2478 9.96645 20.0908 10.0315C19.9338 10.0965 19.7912 10.1918 19.671 10.312C19.4286 10.5546 19.2925 10.8835 19.2925 11.2265C19.2925 11.5694 19.4286 11.8984 19.671 12.141L20.934 13.404C21.0542 13.5242 21.1968 13.6195 21.3538 13.6845C21.5108 13.7495 21.6791 13.783 21.849 13.783C22.0189 13.783 22.1872 13.7495 22.3442 13.6845C22.5012 13.6195 22.6438 13.5242 22.764 13.404C23.0064 13.1614 23.1425 12.8324 23.1425 12.4895C23.1425 12.1465 23.0064 11.8176 22.764 11.575Z" fill="#231F20"/>
<path d="M24.594 9.746L22.704 7.856C22.5838 7.73584 22.4412 7.64052 22.2842 7.57549C22.1272 7.51045 21.9589 7.47699 21.789 7.47699C21.6191 7.47699 21.4508 7.51045 21.2938 7.57549C21.1368 7.64052 20.9942 7.73584 20.874 7.856C20.6316 8.09863 20.4955 8.42755 20.4955 8.77049C20.4955 9.11344 20.6316 9.44237 20.874 9.685L22.764 11.575C22.8842 11.6952 23.0268 11.7905 23.1838 11.8555C23.3408 11.9205 23.5091 11.954 23.679 11.954C23.8489 11.954 24.0172 11.9205 24.1742 11.8555C24.3312 11.7905 24.4738 11.6952 24.594 11.575C24.8364 11.3324 24.9725 11.0034 24.9725 10.6605C24.9725 10.3175 24.8364 9.98863 24.594 9.746Z" fill="#231F20"/>
<path d="M26.423 7.91599L24.075 5.56799C23.8324 5.32562 23.5035 5.18948 23.1605 5.18948C22.8176 5.18948 22.4886 5.32562 22.246 5.56799C22.0036 5.81062 21.8675 6.13954 21.8675 6.48249C21.8675 6.82544 22.0036 7.15436 22.246 7.39699L24.594 9.745C24.7142 9.86516 24.8568 9.96047 25.0138 10.0255C25.1708 10.0905 25.3391 10.124 25.509 10.124C25.6789 10.124 25.8472 10.0905 26.0042 10.0255C26.1612 9.96047 26.3038 9.86516 26.424 9.745C26.6662 9.50223 26.8022 9.17323 26.802 8.83028C26.8018 8.48734 26.6655 8.15849 26.423 7.91599Z" fill="#231F20"/>
<path d="M28.253 6.08598L25.448 3.28098C25.2054 3.03861 24.8764 2.90247 24.5335 2.90247C24.1906 2.90247 23.8616 3.03861 23.619 3.28098C23.4988 3.40113 23.4035 3.54378 23.3385 3.70078C23.2735 3.85777 23.24 4.02604 23.24 4.19597C23.24 4.3659 23.2735 4.53417 23.3385 4.69117C23.4035 4.84817 23.4988 4.99081 23.619 5.11097L26.424 7.91597C26.6666 8.15834 26.9955 8.29448 27.3385 8.29448C27.6814 8.29448 28.0104 8.15834 28.253 7.91597C28.3732 7.79581 28.4685 7.65317 28.5335 7.49617C28.5985 7.33917 28.632 7.1709 28.632 7.00097C28.632 6.83104 28.5985 6.66277 28.5335 6.50578C28.4685 6.34878 28.3732 6.20613 28.253 6.08598Z" fill="#231F20"/>
<path d="M39.331 16.311L38.191 15.18C38.1474 15.1368 38.0957 15.1026 38.0389 15.0794C37.9821 15.0561 37.9213 15.0443 37.8599 15.0446C37.7985 15.0449 37.7378 15.0573 37.6812 15.081C37.6246 15.1047 37.5732 15.1394 37.53 15.183C37.4868 15.2266 37.4526 15.2783 37.4294 15.3351C37.4062 15.3919 37.3943 15.4528 37.3946 15.5141C37.3949 15.5755 37.4073 15.6362 37.431 15.6928C37.4548 15.7494 37.4894 15.8008 37.533 15.844L38.673 16.975C38.7611 17.0623 38.8802 17.1109 39.0041 17.1104C39.1281 17.1098 39.2468 17.06 39.334 16.972C39.4213 16.8839 39.47 16.7648 39.4694 16.6409C39.4688 16.5169 39.4191 16.3983 39.331 16.311Z" fill="white"/>
<path d="M36.367 14.022C36.3019 14.0874 36.2576 14.1706 36.2398 14.2611C36.222 14.3517 36.2313 14.4454 36.2668 14.5306C36.3022 14.6158 36.362 14.6887 36.4388 14.7399C36.5155 14.7911 36.6057 14.8184 36.698 14.8184C36.7903 14.8184 36.8805 14.7911 36.9572 14.7399C37.034 14.6887 37.0938 14.6158 37.1292 14.5306C37.1647 14.4454 37.174 14.3517 37.1562 14.2611C37.1383 14.1706 37.0941 14.0874 37.029 14.022C36.9855 13.9784 36.9339 13.9439 36.8771 13.9204C36.8202 13.8969 36.7593 13.8848 36.6978 13.8849C36.6363 13.885 36.5754 13.8973 36.5186 13.921C36.4618 13.9447 36.4103 13.9793 36.367 14.023V14.022Z" fill="white"/>
<path d="M30.51 19.146C30.462 19.0981 30.4041 19.0612 30.3404 19.0379C30.2766 19.0146 30.2086 19.0054 30.141 19.011L29.993 19.023C29.3153 19.0792 28.6362 18.9316 28.043 18.599L28.343 18.299C30.1163 18.1911 31.7884 17.4368 33.043 16.179L37.576 11.646C37.7983 11.4238 37.9571 11.1462 38.0358 10.842C38.1145 10.5377 38.1103 10.2179 38.0237 9.91583C37.937 9.61374 37.7711 9.34036 37.5431 9.12409C37.315 8.90782 37.0333 8.75655 36.727 8.686C36.8409 8.44051 36.8967 8.17208 36.8901 7.90154C36.8835 7.631 36.8146 7.36562 36.6889 7.12598C36.5632 6.88633 36.384 6.67887 36.1651 6.51967C35.9463 6.36048 35.6937 6.25383 35.427 6.208C35.5072 5.96781 35.5345 5.71313 35.5072 5.46139C35.4798 5.20965 35.3984 4.96679 35.2685 4.74943C35.1386 4.53207 34.9633 4.34533 34.7545 4.20201C34.5458 4.05868 34.3085 3.96214 34.059 3.919C34.1689 3.58409 34.1758 3.22391 34.0789 2.88502C33.982 2.54613 33.7856 2.2441 33.5152 2.01797C33.2448 1.79184 32.9129 1.652 32.5622 1.61653C32.2115 1.58106 31.8582 1.65159 31.548 1.819L31.503 1.771C31.2117 1.45877 30.8594 1.2097 30.4679 1.03923C30.0764 0.868762 29.654 0.780529 29.227 0.779999H25.555C25.4311 0.779999 25.3124 0.829199 25.2248 0.916779C25.1372 1.00436 25.088 1.12314 25.088 1.247V1.86C25.0878 2.10116 25.1288 2.34058 25.209 2.568C24.8973 2.43858 24.555 2.40146 24.2228 2.46104C23.8906 2.52063 23.5825 2.67442 23.3353 2.9041C23.088 3.13379 22.9119 3.42969 22.828 3.75659C22.7441 4.08349 22.7559 4.42762 22.862 4.748C22.6124 4.79091 22.375 4.88715 22.166 5.03015C21.957 5.17315 21.7813 5.35955 21.6509 5.57663C21.5205 5.79371 21.4384 6.03636 21.4103 6.28804C21.3822 6.53971 21.4087 6.79449 21.488 7.035C21.2215 7.08073 20.969 7.18724 20.7503 7.34627C20.5315 7.5053 20.3524 7.71257 20.2266 7.95201C20.1009 8.19146 20.032 8.45664 20.0253 8.72699C20.0186 8.99735 20.0743 9.26562 20.188 9.511C19.8817 9.58159 19.5998 9.7329 19.3717 9.94922C19.1436 10.1655 18.9776 10.439 18.8908 10.7411C18.8041 11.0433 18.7998 11.3632 18.8784 11.6675C18.9571 11.9719 19.1158 12.2497 19.338 12.472L20.27 13.404L15.684 17.995C15.5963 18.0827 15.5471 18.2015 15.5471 18.3255C15.5471 18.4495 15.5963 18.5683 15.684 18.656C15.7717 18.7437 15.8905 18.7929 16.0145 18.7929C16.1385 18.7929 16.2573 18.7437 16.345 18.656L20.979 14.019C21.2519 14.1743 21.5613 14.2537 21.8753 14.2491C22.1892 14.2445 22.4962 14.156 22.7644 13.9928C23.0326 13.8295 23.2523 13.5975 23.4006 13.3208C23.5489 13.0441 23.6205 12.7327 23.608 12.419H23.679C23.9102 12.4193 24.1393 12.3739 24.353 12.2856C24.5667 12.1972 24.7609 12.0676 24.9244 11.9042C25.088 11.7407 25.2177 11.5466 25.3062 11.3329C25.3947 11.1192 25.4401 10.8902 25.44 10.659C25.44 10.635 25.44 10.612 25.44 10.588H25.51C25.7412 10.5883 25.9703 10.5429 26.184 10.4546C26.3977 10.3662 26.5919 10.2366 26.7554 10.0732C26.919 9.90968 27.0487 9.71557 27.1372 9.50191C27.2257 9.28825 27.2711 9.05925 27.271 8.828C27.271 8.804 27.271 8.781 27.271 8.757H27.341C27.6744 8.7572 28.001 8.66269 28.2828 8.48446C28.5646 8.30623 28.79 8.05163 28.9327 7.75029C29.0754 7.44895 29.1296 7.11327 29.0889 6.78233C29.0483 6.4514 28.9144 6.13882 28.703 5.881L31.803 2.781C31.8798 2.70424 31.9709 2.64335 32.0712 2.60181C32.1715 2.56027 32.279 2.53889 32.3875 2.53889C32.4961 2.53889 32.6035 2.56027 32.7038 2.60181C32.8041 2.64335 32.8952 2.70424 32.972 2.781C33.0488 2.85776 33.1096 2.94888 33.1512 3.04917C33.1927 3.14946 33.2141 3.25695 33.2141 3.3655C33.2141 3.47405 33.1927 3.58154 33.1512 3.68183C33.1096 3.78212 33.0488 3.87324 32.972 3.95L32.515 4.407L30.854 6.069C30.8106 6.1124 30.7762 6.16393 30.7527 6.22063C30.7292 6.27734 30.7171 6.33812 30.7171 6.3995C30.7171 6.46088 30.7292 6.52166 30.7527 6.57836C30.7762 6.63507 30.8106 6.6866 30.854 6.73C30.8974 6.7734 30.9489 6.80783 31.0056 6.83132C31.0623 6.85481 31.1231 6.8669 31.1845 6.8669C31.2459 6.8669 31.3067 6.85481 31.3634 6.83132C31.4201 6.80783 31.4716 6.7734 31.515 6.73L33.174 5.071C33.2508 4.99424 33.3419 4.93335 33.4422 4.89181C33.5425 4.85027 33.65 4.82889 33.7585 4.82889C33.8671 4.82889 33.9745 4.85027 34.0748 4.89181C34.1751 4.93335 34.2662 4.99424 34.343 5.071C34.4198 5.14776 34.4806 5.23888 34.5222 5.33917C34.5637 5.43946 34.5851 5.54695 34.5851 5.6555C34.5851 5.76405 34.5637 5.87154 34.5222 5.97183C34.4806 6.07212 34.4198 6.16324 34.343 6.24L33.886 6.697L32.686 7.897C32.6426 7.9404 32.6082 7.99193 32.5847 8.04863C32.5612 8.10534 32.5491 8.16612 32.5491 8.2275C32.5491 8.28888 32.5612 8.34966 32.5847 8.40636C32.6082 8.46307 32.6426 8.5146 32.686 8.558C32.7294 8.6014 32.7809 8.63583 32.8376 8.65932C32.8943 8.68281 32.9551 8.6949 33.0165 8.6949C33.0779 8.6949 33.1387 8.68281 33.1954 8.65932C33.2521 8.63583 33.3036 8.6014 33.347 8.558L34.547 7.358C34.6238 7.28124 34.7149 7.22035 34.8152 7.17881C34.9155 7.13727 35.023 7.11589 35.1315 7.11589C35.2401 7.11589 35.3475 7.13727 35.4478 7.17881C35.5481 7.22035 35.6392 7.28124 35.716 7.358C35.7928 7.43476 35.8536 7.52588 35.8952 7.62617C35.9367 7.72646 35.9581 7.83395 35.9581 7.9425C35.9581 8.05105 35.9367 8.15854 35.8952 8.25883C35.8536 8.35912 35.7928 8.45024 35.716 8.527L35.088 9.155L34.514 9.729C34.4706 9.7724 34.4362 9.82393 34.4127 9.88063C34.3892 9.93734 34.3771 9.99812 34.3771 10.0595C34.3771 10.1209 34.3892 10.1817 34.4127 10.2384C34.4362 10.2951 34.4706 10.3466 34.514 10.39C34.5574 10.4334 34.6089 10.4678 34.6656 10.4913C34.7223 10.5148 34.7831 10.5269 34.8445 10.5269C34.9059 10.5269 34.9667 10.5148 35.0234 10.4913C35.0801 10.4678 35.1316 10.4334 35.175 10.39L35.748 9.819C35.903 9.66411 36.1132 9.57715 36.3324 9.57725C36.5515 9.57734 36.7616 9.66448 36.9165 9.8195C37.0714 9.97452 37.1583 10.1847 37.1583 10.4039C37.1582 10.623 37.071 10.8331 36.916 10.988L32.383 15.519C31.2496 16.6553 29.7269 17.3186 28.123 17.375C28.0048 17.3792 27.8925 17.4282 27.809 17.512L23.621 21.712C23.5335 21.7998 23.4844 21.9187 23.4846 22.0427C23.4848 22.1667 23.5342 22.2855 23.622 22.373C23.7098 22.4605 23.8287 22.5096 23.9527 22.5094C24.0767 22.5092 24.1955 22.4598 24.283 22.372L27.363 19.28C28.1468 19.7833 29.0716 20.0213 30.001 19.959L32.412 22.37C32.4997 22.4577 32.6185 22.5069 32.7425 22.5069C32.8665 22.5069 32.9853 22.4577 33.073 22.37C33.1607 22.2823 33.2099 22.1635 33.2099 22.0395C33.2099 21.9155 33.1607 21.7967 33.073 21.709L30.51 19.146ZM26.022 1.719H29.222C29.5205 1.71949 29.8157 1.78124 30.0894 1.90045C30.3631 2.01965 30.6093 2.19376 30.813 2.412L30.832 2.432L28.048 5.219L26.764 3.935C26.9109 3.96666 27.0607 3.98275 27.211 3.983H27.221L28.503 3.977C28.627 3.977 28.7459 3.92774 28.8336 3.84007C28.9212 3.7524 28.9705 3.63349 28.9705 3.5095C28.9705 3.38551 28.9212 3.2666 28.8336 3.17893C28.7459 3.09125 28.627 3.042 28.503 3.042L27.221 3.048H27.215C26.9002 3.048 26.5983 2.92294 26.3757 2.70033C26.1531 2.47773 26.028 2.17581 26.028 1.861V1.719H26.022ZM22.434 13.075C22.3573 13.1518 22.2662 13.2128 22.1659 13.2544C22.0656 13.296 21.9581 13.3174 21.8495 13.3174C21.7409 13.3174 21.6334 13.296 21.5331 13.2544C21.4328 13.2128 21.3417 13.1518 21.265 13.075L20.002 11.812C19.9252 11.7352 19.8644 11.6441 19.8228 11.5438C19.7813 11.4435 19.7599 11.3361 19.7599 11.2275C19.7599 11.1189 19.7813 11.0115 19.8228 10.9112C19.8644 10.8109 19.9252 10.7198 20.002 10.643C20.0788 10.5662 20.1699 10.5054 20.2702 10.4638C20.3705 10.4223 20.4779 10.4009 20.5865 10.4009C20.6951 10.4009 20.8025 10.4223 20.9028 10.4638C21.0031 10.5054 21.0942 10.5662 21.171 10.643L22.434 11.906C22.5889 12.0611 22.6759 12.2713 22.6759 12.4905C22.6759 12.7097 22.5889 12.9199 22.434 13.075ZM24.506 10.661C24.5062 10.8246 24.4578 10.9845 24.367 11.1205C24.2762 11.2565 24.147 11.3625 23.9959 11.4251C23.8448 11.4876 23.6785 11.5039 23.5181 11.4718C23.3577 11.4398 23.2105 11.3608 23.095 11.245L21.832 9.982L21.204 9.354C21.049 9.19898 20.9619 8.98873 20.9619 8.7695C20.9619 8.55027 21.049 8.34002 21.204 8.185C21.359 8.02998 21.5693 7.94289 21.7885 7.94289C22.0077 7.94289 22.218 8.02998 22.373 8.185L24.263 10.075C24.3402 10.1518 24.4013 10.2431 24.4428 10.3437C24.4844 10.4443 24.5055 10.5522 24.505 10.661H24.506ZM26.335 8.831C26.3352 8.99455 26.2868 9.15447 26.196 9.2905C26.1052 9.42652 25.976 9.53252 25.8249 9.59507C25.6738 9.65762 25.5075 9.67389 25.3471 9.64184C25.1867 9.60978 25.0395 9.53083 24.924 9.415L22.576 7.068C22.4992 6.99104 22.4384 6.89972 22.3969 6.79925C22.3555 6.69878 22.3342 6.59113 22.3343 6.48244C22.3345 6.37375 22.356 6.26615 22.3977 6.16578C22.4395 6.06542 22.5005 5.97426 22.5775 5.8975C22.6545 5.82074 22.7458 5.75989 22.8462 5.71843C22.9467 5.67696 23.0544 5.65569 23.1631 5.65583C23.2718 5.65597 23.3794 5.67752 23.4797 5.71924C23.5801 5.76096 23.6712 5.82204 23.748 5.899L24.818 6.969L26.096 8.247C26.1724 8.32377 26.2328 8.41489 26.2738 8.51512C26.3149 8.61535 26.3356 8.7227 26.335 8.831ZM27.922 7.586C27.7669 7.74092 27.5567 7.82794 27.3375 7.82794C27.1183 7.82794 26.9081 7.74092 26.753 7.586L24.406 5.238L23.948 4.781C23.793 4.62598 23.7059 4.41573 23.7059 4.1965C23.7059 3.97727 23.793 3.76702 23.948 3.612C24.103 3.45698 24.3133 3.36989 24.5325 3.36989C24.7517 3.36989 24.962 3.45698 25.117 3.612L27.922 6.419C28.0769 6.57407 28.1639 6.7843 28.1639 7.0035C28.1639 7.2227 28.0769 7.43293 27.922 7.588V7.586Z" fill="white"/>
</svg>
